<?xml version="1.0" encoding="utf-8" standalone="no"?>
<!DOCTYPE svg PUBLIC "-//W3C//DTD SVG 1.1//EN"
  "http://www.w3.org/Graphics/SVG/1.1/DTD/svg11.dtd">
<svg xmlns:xlink="http://www.w3.org/1999/xlink" width="661.699062pt" height="508.55875pt" viewBox="0 0 661.699062 508.55875" xmlns="http://www.w3.org/2000/svg" version="1.1">
 <metadata>
  <rdf:RDF xmlns:dc="http://purl.org/dc/elements/1.1/" xmlns:cc="http://creativecommons.org/ns#" xmlns:rdf="http://www.w3.org/1999/02/22-rdf-syntax-ns#">
   <cc:Work>
    <dc:type rdf:resource="http://purl.org/dc/dcmitype/StillImage"/>
    <dc:date>2026-07-12T10:32:40.665564</dc:date>
    <dc:format>image/svg+xml</dc:format>
    <dc:creator>
     <cc:Agent>
      <dc:title>Matplotlib v3.11.0, https://matplotlib.org/</dc:title>
     </cc:Agent>
    </dc:creator>
   </cc:Work>
  </rdf:RDF>
 </metadata>
 <defs>
  <style type="text/css">*{stroke-linejoin: round; stroke-linecap: butt}</style>
 </defs>
 <g id="figure_1">
  <g id="patch_1">
   <path d="M 0 508.55875 
L 661.699062 508.55875 
L 661.699062 0 
L 0 0 
z
" style="fill: #ffffff"/>
  </g>
  <g id="axes_1">
   <g id="patch_2">
    <path d="M 37.199688 467.357812 
L 650.999688 467.357812 
L 650.999688 23.837812 
L 37.199688 23.837812 
z
" style="fill: #ffffff"/>
   </g>
   <g id="line2d_1">
    <path d="M 37.199688 245.597812 
L 650.999688 245.597812 
" clip-path="url(#p510093f595)" style="fill: none; stroke-dasharray: 2.96,1.28; stroke-dashoffset: 0; stroke: #999999; stroke-width: 0.8"/>
   </g>
   <g id="matplotlib.axis_1">
    <g id="xtick_1">
     <g id="line2d_2">
      <path d="M 56.999688 467.357812 
L 56.999688 23.837812 
" clip-path="url(#p510093f595)" style="fill: none; stroke: #b0b0b0; stroke-opacity: 0.2; stroke-width: 0.8; stroke-linecap: square"/>
     </g>
     <g id="line2d_3">
      <defs>
       <path id="mdfe87afad5" d="M 0 0 
L 0 3.5 
" style="stroke: #000000; stroke-width: 0.8"/>
      </defs>
      <g>
       <use xlink:href="#mdfe87afad5" x="56.999688" y="467.357812" style="stroke: #000000; stroke-width: 0.8"/>
      </g>
     </g>
     <g id="text_1">
      <!-- 0 -->
      <g transform="translate(53.500313 482.715234) scale(0.11 -0.11)">
       <defs>
        <path id="DejaVuSans-13" d="M 2034 4250 
Q 1547 4250 1301 3770 
Q 1056 3291 1056 2328 
Q 1056 1369 1301 889 
Q 1547 409 2034 409 
Q 2525 409 2770 889 
Q 3016 1369 3016 2328 
Q 3016 3291 2770 3770 
Q 2525 4250 2034 4250 
z
M 2034 4750 
Q 2819 4750 3233 4129 
Q 3647 3509 3647 2328 
Q 3647 1150 3233 529 
Q 2819 -91 2034 -91 
Q 1250 -91 836 529 
Q 422 1150 422 2328 
Q 422 3509 836 4129 
Q 1250 4750 2034 4750 
z
" transform="scale(0.015625)"/>
       </defs>
       <use xlink:href="#DejaVuSans-13"/>
      </g>
     </g>
    </g>
    <g id="xtick_2">
     <g id="line2d_4">
      <path d="M 155.999688 467.357812 
L 155.999688 23.837812 
" clip-path="url(#p510093f595)" style="fill: none; stroke: #b0b0b0; stroke-opacity: 0.2; stroke-width: 0.8; stroke-linecap: square"/>
     </g>
     <g id="line2d_5">
      <g>
       <use xlink:href="#mdfe87afad5" x="155.999688" y="467.357812" style="stroke: #000000; stroke-width: 0.8"/>
      </g>
     </g>
     <g id="text_2">
      <!-- 1 -->
      <g transform="translate(152.500313 482.715234) scale(0.11 -0.11)">
       <defs>
        <path id="DejaVuSans-14" d="M 794 531 
L 1825 531 
L 1825 4091 
L 703 3866 
L 703 4441 
L 1819 4666 
L 2450 4666 
L 2450 531 
L 3481 531 
L 3481 0 
L 794 0 
L 794 531 
z
" transform="scale(0.015625)"/>
       </defs>
       <use xlink:href="#DejaVuSans-14"/>
      </g>
     </g>
    </g>
    <g id="xtick_3">
     <g id="line2d_6">
      <path d="M 254.999688 467.357812 
L 254.999688 23.837812 
" clip-path="url(#p510093f595)" style="fill: none; stroke: #b0b0b0; stroke-opacity: 0.2; stroke-width: 0.8; stroke-linecap: square"/>
     </g>
     <g id="line2d_7">
      <g>
       <use xlink:href="#mdfe87afad5" x="254.999688" y="467.357812" style="stroke: #000000; stroke-width: 0.8"/>
      </g>
     </g>
     <g id="text_3">
      <!-- 2 -->
      <g transform="translate(251.500313 482.715234) scale(0.11 -0.11)">
       <defs>
        <path id="DejaVuSans-15" d="M 1228 531 
L 3431 531 
L 3431 0 
L 469 0 
L 469 531 
Q 828 903 1448 1529 
Q 2069 2156 2228 2338 
Q 2531 2678 2651 2914 
Q 2772 3150 2772 3378 
Q 2772 3750 2511 3984 
Q 2250 4219 1831 4219 
Q 1534 4219 1204 4116 
Q 875 4013 500 3803 
L 500 4441 
Q 881 4594 1212 4672 
Q 1544 4750 1819 4750 
Q 2544 4750 2975 4387 
Q 3406 4025 3406 3419 
Q 3406 3131 3298 2873 
Q 3191 2616 2906 2266 
Q 2828 2175 2409 1742 
Q 1991 1309 1228 531 
z
" transform="scale(0.015625)"/>
       </defs>
       <use xlink:href="#DejaVuSans-15"/>
      </g>
     </g>
    </g>
    <g id="xtick_4">
     <g id="line2d_8">
      <path d="M 353.999688 467.357812 
L 353.999688 23.837812 
" clip-path="url(#p510093f595)" style="fill: none; stroke: #b0b0b0; stroke-opacity: 0.2; stroke-width: 0.8; stroke-linecap: square"/>
     </g>
     <g id="line2d_9">
      <g>
       <use xlink:href="#mdfe87afad5" x="353.999688" y="467.357812" style="stroke: #000000; stroke-width: 0.8"/>
      </g>
     </g>
     <g id="text_4">
      <!-- 3 -->
      <g transform="translate(350.500313 482.715234) scale(0.11 -0.11)">
       <defs>
        <path id="DejaVuSans-16" d="M 2597 2516 
Q 3050 2419 3304 2112 
Q 3559 1806 3559 1356 
Q 3559 666 3084 287 
Q 2609 -91 1734 -91 
Q 1441 -91 1130 -33 
Q 819 25 488 141 
L 488 750 
Q 750 597 1062 519 
Q 1375 441 1716 441 
Q 2309 441 2620 675 
Q 2931 909 2931 1356 
Q 2931 1769 2642 2001 
Q 2353 2234 1838 2234 
L 1294 2234 
L 1294 2753 
L 1863 2753 
Q 2328 2753 2575 2939 
Q 2822 3125 2822 3475 
Q 2822 3834 2567 4026 
Q 2313 4219 1838 4219 
Q 1578 4219 1281 4162 
Q 984 4106 628 3988 
L 628 4550 
Q 988 4650 1302 4700 
Q 1616 4750 1894 4750 
Q 2613 4750 3031 4423 
Q 3450 4097 3450 3541 
Q 3450 3153 3228 2886 
Q 3006 2619 2597 2516 
z
" transform="scale(0.015625)"/>
       </defs>
       <use xlink:href="#DejaVuSans-16"/>
      </g>
     </g>
    </g>
    <g id="xtick_5">
     <g id="line2d_10">
      <path d="M 452.999688 467.357812 
L 452.999688 23.837812 
" clip-path="url(#p510093f595)" style="fill: none; stroke: #b0b0b0; stroke-opacity: 0.2; stroke-width: 0.8; stroke-linecap: square"/>
     </g>
     <g id="line2d_11">
      <g>
       <use xlink:href="#mdfe87afad5" x="452.999688" y="467.357812" style="stroke: #000000; stroke-width: 0.8"/>
      </g>
     </g>
     <g id="text_5">
      <!-- 4 -->
      <g transform="translate(449.500313 482.715234) scale(0.11 -0.11)">
       <defs>
        <path id="DejaVuSans-17" d="M 2419 4116 
L 825 1625 
L 2419 1625 
L 2419 4116 
z
M 2253 4666 
L 3047 4666 
L 3047 1625 
L 3713 1625 
L 3713 1100 
L 3047 1100 
L 3047 0 
L 2419 0 
L 2419 1100 
L 313 1100 
L 313 1709 
L 2253 4666 
z
" transform="scale(0.015625)"/>
       </defs>
       <use xlink:href="#DejaVuSans-17"/>
      </g>
     </g>
    </g>
    <g id="xtick_6">
     <g id="line2d_12">
      <path d="M 551.999688 467.357812 
L 551.999688 23.837812 
" clip-path="url(#p510093f595)" style="fill: none; stroke: #b0b0b0; stroke-opacity: 0.2; stroke-width: 0.8; stroke-linecap: square"/>
     </g>
     <g id="line2d_13">
      <g>
       <use xlink:href="#mdfe87afad5" x="551.999688" y="467.357812" style="stroke: #000000; stroke-width: 0.8"/>
      </g>
     </g>
     <g id="text_6">
      <!-- 5 -->
      <g transform="translate(548.500313 482.715234) scale(0.11 -0.11)">
       <defs>
        <path id="DejaVuSans-18" d="M 691 4666 
L 3169 4666 
L 3169 4134 
L 1269 4134 
L 1269 2991 
Q 1406 3038 1543 3061 
Q 1681 3084 1819 3084 
Q 2600 3084 3056 2656 
Q 3513 2228 3513 1497 
Q 3513 744 3044 326 
Q 2575 -91 1722 -91 
Q 1428 -91 1123 -41 
Q 819 9 494 109 
L 494 744 
Q 775 591 1075 516 
Q 1375 441 1709 441 
Q 2250 441 2565 725 
Q 2881 1009 2881 1497 
Q 2881 1984 2565 2268 
Q 2250 2553 1709 2553 
Q 1456 2553 1204 2497 
Q 953 2441 691 2322 
L 691 4666 
z
" transform="scale(0.015625)"/>
       </defs>
       <use xlink:href="#DejaVuSans-18"/>
      </g>
     </g>
    </g>
    <g id="xtick_7">
     <g id="line2d_14">
      <path d="M 650.999688 467.357812 
L 650.999688 23.837812 
" clip-path="url(#p510093f595)" style="fill: none; stroke: #b0b0b0; stroke-opacity: 0.2; stroke-width: 0.8; stroke-linecap: square"/>
     </g>
     <g id="line2d_15">
      <g>
       <use xlink:href="#mdfe87afad5" x="650.999688" y="467.357812" style="stroke: #000000; stroke-width: 0.8"/>
      </g>
     </g>
     <g id="text_7">
      <!-- 6 -->
      <g transform="translate(647.500313 482.715234) scale(0.11 -0.11)">
       <defs>
        <path id="DejaVuSans-19" d="M 2113 2584 
Q 1688 2584 1439 2293 
Q 1191 2003 1191 1497 
Q 1191 994 1439 701 
Q 1688 409 2113 409 
Q 2538 409 2786 701 
Q 3034 994 3034 1497 
Q 3034 2003 2786 2293 
Q 2538 2584 2113 2584 
z
M 3366 4563 
L 3366 3988 
Q 3128 4100 2886 4159 
Q 2644 4219 2406 4219 
Q 1781 4219 1451 3797 
Q 1122 3375 1075 2522 
Q 1259 2794 1537 2939 
Q 1816 3084 2150 3084 
Q 2853 3084 3261 2657 
Q 3669 2231 3669 1497 
Q 3669 778 3244 343 
Q 2819 -91 2113 -91 
Q 1303 -91 875 529 
Q 447 1150 447 2328 
Q 447 3434 972 4092 
Q 1497 4750 2381 4750 
Q 2619 4750 2861 4703 
Q 3103 4656 3366 4563 
z
" transform="scale(0.015625)"/>
       </defs>
       <use xlink:href="#DejaVuSans-19"/>
      </g>
     </g>
    </g>
    <g id="text_8">
     <!-- Production cost (USD) -->
     <g transform="translate(278.41375 498.475937) scale(0.12 -0.12)">
      <defs>
       <path id="DejaVuSans-33" d="M 1259 4147 
L 1259 2394 
L 2053 2394 
Q 2494 2394 2734 2622 
Q 2975 2850 2975 3272 
Q 2975 3691 2734 3919 
Q 2494 4147 2053 4147 
L 1259 4147 
z
M 628 4666 
L 2053 4666 
Q 2838 4666 3239 4311 
Q 3641 3956 3641 3272 
Q 3641 2581 3239 2228 
Q 2838 1875 2053 1875 
L 1259 1875 
L 1259 0 
L 628 0 
L 628 4666 
z
" transform="scale(0.015625)"/>
       <path id="DejaVuSans-55" d="M 2631 2963 
Q 2534 3019 2420 3045 
Q 2306 3072 2169 3072 
Q 1681 3072 1420 2755 
Q 1159 2438 1159 1844 
L 1159 0 
L 581 0 
L 581 3500 
L 1159 3500 
L 1159 2956 
Q 1341 3275 1631 3429 
Q 1922 3584 2338 3584 
Q 2397 3584 2469 3576 
Q 2541 3569 2628 3553 
L 2631 2963 
z
" transform="scale(0.015625)"/>
       <path id="DejaVuSans-52" d="M 1959 3097 
Q 1497 3097 1228 2736 
Q 959 2375 959 1747 
Q 959 1119 1226 758 
Q 1494 397 1959 397 
Q 2419 397 2687 759 
Q 2956 1122 2956 1747 
Q 2956 2369 2687 2733 
Q 2419 3097 1959 3097 
z
M 1959 3584 
Q 2709 3584 3137 3096 
Q 3566 2609 3566 1747 
Q 3566 888 3137 398 
Q 2709 -91 1959 -91 
Q 1206 -91 779 398 
Q 353 888 353 1747 
Q 353 2609 779 3096 
Q 1206 3584 1959 3584 
z
" transform="scale(0.015625)"/>
       <path id="DejaVuSans-47" d="M 2906 2969 
L 2906 4863 
L 3481 4863 
L 3481 0 
L 2906 0 
L 2906 525 
Q 2725 213 2448 61 
Q 2172 -91 1784 -91 
Q 1150 -91 751 415 
Q 353 922 353 1747 
Q 353 2572 751 3078 
Q 1150 3584 1784 3584 
Q 2172 3584 2448 3432 
Q 2725 3281 2906 2969 
z
M 947 1747 
Q 947 1113 1208 752 
Q 1469 391 1925 391 
Q 2381 391 2643 752 
Q 2906 1113 2906 1747 
Q 2906 2381 2643 2742 
Q 2381 3103 1925 3103 
Q 1469 3103 1208 2742 
Q 947 2381 947 1747 
z
" transform="scale(0.015625)"/>
       <path id="DejaVuSans-58" d="M 544 1381 
L 544 3500 
L 1119 3500 
L 1119 1403 
Q 1119 906 1312 657 
Q 1506 409 1894 409 
Q 2359 409 2629 706 
Q 2900 1003 2900 1516 
L 2900 3500 
L 3475 3500 
L 3475 0 
L 2900 0 
L 2900 538 
Q 2691 219 2414 64 
Q 2138 -91 1772 -91 
Q 1169 -91 856 284 
Q 544 659 544 1381 
z
M 1991 3584 
L 1991 3584 
z
" transform="scale(0.015625)"/>
       <path id="DejaVuSans-46" d="M 3122 3366 
L 3122 2828 
Q 2878 2963 2633 3030 
Q 2388 3097 2138 3097 
Q 1578 3097 1268 2742 
Q 959 2388 959 1747 
Q 959 1106 1268 751 
Q 1578 397 2138 397 
Q 2388 397 2633 464 
Q 2878 531 3122 666 
L 3122 134 
Q 2881 22 2623 -34 
Q 2366 -91 2075 -91 
Q 1284 -91 818 406 
Q 353 903 353 1747 
Q 353 2603 823 3093 
Q 1294 3584 2113 3584 
Q 2378 3584 2631 3529 
Q 2884 3475 3122 3366 
z
" transform="scale(0.015625)"/>
       <path id="DejaVuSans-57" d="M 1172 4494 
L 1172 3500 
L 2356 3500 
L 2356 3053 
L 1172 3053 
L 1172 1153 
Q 1172 725 1289 603 
Q 1406 481 1766 481 
L 2356 481 
L 2356 0 
L 1766 0 
Q 1100 0 847 248 
Q 594 497 594 1153 
L 594 3053 
L 172 3053 
L 172 3500 
L 594 3500 
L 594 4494 
L 1172 4494 
z
" transform="scale(0.015625)"/>
       <path id="DejaVuSans-4c" d="M 603 3500 
L 1178 3500 
L 1178 0 
L 603 0 
L 603 3500 
z
M 603 4863 
L 1178 4863 
L 1178 4134 
L 603 4134 
L 603 4863 
z
" transform="scale(0.015625)"/>
       <path id="DejaVuSans-51" d="M 3513 2113 
L 3513 0 
L 2938 0 
L 2938 2094 
Q 2938 2591 2744 2837 
Q 2550 3084 2163 3084 
Q 1697 3084 1428 2787 
Q 1159 2491 1159 1978 
L 1159 0 
L 581 0 
L 581 3500 
L 1159 3500 
L 1159 2956 
Q 1366 3272 1645 3428 
Q 1925 3584 2291 3584 
Q 2894 3584 3203 3211 
Q 3513 2838 3513 2113 
z
" transform="scale(0.015625)"/>
       <path id="DejaVuSans-3" transform="scale(0.015625)"/>
       <path id="DejaVuSans-56" d="M 2834 3397 
L 2834 2853 
Q 2591 2978 2328 3040 
Q 2066 3103 1784 3103 
Q 1356 3103 1142 2972 
Q 928 2841 928 2578 
Q 928 2378 1081 2264 
Q 1234 2150 1697 2047 
L 1894 2003 
Q 2506 1872 2764 1633 
Q 3022 1394 3022 966 
Q 3022 478 2636 193 
Q 2250 -91 1575 -91 
Q 1294 -91 989 -36 
Q 684 19 347 128 
L 347 722 
Q 666 556 975 473 
Q 1284 391 1588 391 
Q 1994 391 2212 530 
Q 2431 669 2431 922 
Q 2431 1156 2273 1281 
Q 2116 1406 1581 1522 
L 1381 1569 
Q 847 1681 609 1914 
Q 372 2147 372 2553 
Q 372 3047 722 3315 
Q 1072 3584 1716 3584 
Q 2034 3584 2315 3537 
Q 2597 3491 2834 3397 
z
" transform="scale(0.015625)"/>
       <path id="DejaVuSans-b" d="M 1984 4856 
Q 1566 4138 1362 3434 
Q 1159 2731 1159 2009 
Q 1159 1288 1364 580 
Q 1569 -128 1984 -844 
L 1484 -844 
Q 1016 -109 783 600 
Q 550 1309 550 2009 
Q 550 2706 781 3412 
Q 1013 4119 1484 4856 
L 1984 4856 
z
" transform="scale(0.015625)"/>
       <path id="DejaVuSans-38" d="M 556 4666 
L 1191 4666 
L 1191 1831 
Q 1191 1081 1462 751 
Q 1734 422 2344 422 
Q 2950 422 3222 751 
Q 3494 1081 3494 1831 
L 3494 4666 
L 4128 4666 
L 4128 1753 
Q 4128 841 3676 375 
Q 3225 -91 2344 -91 
Q 1459 -91 1007 375 
Q 556 841 556 1753 
L 556 4666 
z
" transform="scale(0.015625)"/>
       <path id="DejaVuSans-36" d="M 3425 4513 
L 3425 3897 
Q 3066 4069 2747 4153 
Q 2428 4238 2131 4238 
Q 1616 4238 1336 4038 
Q 1056 3838 1056 3469 
Q 1056 3159 1242 3001 
Q 1428 2844 1947 2747 
L 2328 2669 
Q 3034 2534 3370 2195 
Q 3706 1856 3706 1288 
Q 3706 609 3251 259 
Q 2797 -91 1919 -91 
Q 1588 -91 1214 -16 
Q 841 59 441 206 
L 441 856 
Q 825 641 1194 531 
Q 1563 422 1919 422 
Q 2459 422 2753 634 
Q 3047 847 3047 1241 
Q 3047 1584 2836 1778 
Q 2625 1972 2144 2069 
L 1759 2144 
Q 1053 2284 737 2584 
Q 422 2884 422 3419 
Q 422 4038 858 4394 
Q 1294 4750 2059 4750 
Q 2388 4750 2728 4690 
Q 3069 4631 3425 4513 
z
" transform="scale(0.015625)"/>
       <path id="DejaVuSans-27" d="M 1259 4147 
L 1259 519 
L 2022 519 
Q 2988 519 3436 956 
Q 3884 1394 3884 2338 
Q 3884 3275 3436 3711 
Q 2988 4147 2022 4147 
L 1259 4147 
z
M 628 4666 
L 1925 4666 
Q 3281 4666 3915 4102 
Q 4550 3538 4550 2338 
Q 4550 1131 3912 565 
Q 3275 0 1925 0 
L 628 0 
L 628 4666 
z
" transform="scale(0.015625)"/>
       <path id="DejaVuSans-c" d="M 513 4856 
L 1013 4856 
Q 1481 4119 1714 3412 
Q 1947 2706 1947 2009 
Q 1947 1309 1714 600 
Q 1481 -109 1013 -844 
L 513 -844 
Q 928 -128 1133 580 
Q 1338 1288 1338 2009 
Q 1338 2731 1133 3434 
Q 928 4138 513 4856 
z
" transform="scale(0.015625)"/>
      </defs>
      <use xlink:href="#DejaVuSans-33"/>
      <use xlink:href="#DejaVuSans-55" transform="translate(58.546875 0)"/>
      <use xlink:href="#DejaVuSans-52" transform="translate(97.453125 0)"/>
      <use xlink:href="#DejaVuSans-47" transform="translate(158.640625 0)"/>
      <use xlink:href="#DejaVuSans-58" transform="translate(222.125 0)"/>
      <use xlink:href="#DejaVuSans-46" transform="translate(285.5 0)"/>
      <use xlink:href="#DejaVuSans-57" transform="translate(340.484375 0)"/>
      <use xlink:href="#DejaVuSans-4c" transform="translate(379.6875 0)"/>
      <use xlink:href="#DejaVuSans-52" transform="translate(407.46875 0)"/>
      <use xlink:href="#DejaVuSans-51" transform="translate(468.65625 0)"/>
      <use xlink:href="#DejaVuSans-3" transform="translate(532.03125 0)"/>
      <use xlink:href="#DejaVuSans-46" transform="translate(563.8125 0)"/>
      <use xlink:href="#DejaVuSans-52" transform="translate(618.796875 0)"/>
      <use xlink:href="#DejaVuSans-56" transform="translate(679.984375 0)"/>
      <use xlink:href="#DejaVuSans-57" transform="translate(732.078125 0)"/>
      <use xlink:href="#DejaVuSans-3" transform="translate(771.28125 0)"/>
      <use xlink:href="#DejaVuSans-b" transform="translate(803.0625 0)"/>
      <use xlink:href="#DejaVuSans-38" transform="translate(842.078125 0)"/>
      <use xlink:href="#DejaVuSans-36" transform="translate(915.265625 0)"/>
      <use xlink:href="#DejaVuSans-27" transform="translate(978.75 0)"/>
      <use xlink:href="#DejaVuSans-c" transform="translate(1055.75 0)"/>
     </g>
    </g>
   </g>
   <g id="matplotlib.axis_2">
    <g id="ytick_1">
     <g id="line2d_16">
      <path d="M 37.199688 423.005812 
L 650.999688 423.005812 
" clip-path="url(#p510093f595)" style="fill: none; stroke: #b0b0b0; stroke-opacity: 0.2; stroke-width: 0.8; stroke-linecap: square"/>
     </g>
     <g id="line2d_17">
      <defs>
       <path id="m918f79869a" d="M 0 0 
L -3.5 0 
" style="stroke: #000000; stroke-width: 0.8"/>
      </defs>
      <g>
       <use xlink:href="#m918f79869a" x="37.199688" y="423.005812" style="stroke: #000000; stroke-width: 0.8"/>
      </g>
     </g>
     <g id="text_9">
      <!-- 5 -->
      <g transform="translate(23.200938 427.184523) scale(0.11 -0.11)">
       <use xlink:href="#DejaVuSans-18"/>
      </g>
     </g>
    </g>
    <g id="ytick_2">
     <g id="line2d_18">
      <path d="M 37.199688 334.301812 
L 650.999688 334.301812 
" clip-path="url(#p510093f595)" style="fill: none; stroke: #b0b0b0; stroke-opacity: 0.2; stroke-width: 0.8; stroke-linecap: square"/>
     </g>
     <g id="line2d_19">
      <g>
       <use xlink:href="#m918f79869a" x="37.199688" y="334.301812" style="stroke: #000000; stroke-width: 0.8"/>
      </g>
     </g>
     <g id="text_10">
      <!-- 6 -->
      <g transform="translate(23.200938 338.480523) scale(0.11 -0.11)">
       <use xlink:href="#DejaVuSans-19"/>
      </g>
     </g>
    </g>
    <g id="ytick_3">
     <g id="line2d_20">
      <path d="M 37.199688 245.597812 
L 650.999688 245.597812 
" clip-path="url(#p510093f595)" style="fill: none; stroke: #b0b0b0; stroke-opacity: 0.2; stroke-width: 0.8; stroke-linecap: square"/>
     </g>
     <g id="line2d_21">
      <g>
       <use xlink:href="#m918f79869a" x="37.199688" y="245.597812" style="stroke: #000000; stroke-width: 0.8"/>
      </g>
     </g>
     <g id="text_11">
      <!-- 7 -->
      <g transform="translate(23.200938 249.776523) scale(0.11 -0.11)">
       <defs>
        <path id="DejaVuSans-1a" d="M 525 4666 
L 3525 4666 
L 3525 4397 
L 1831 0 
L 1172 0 
L 2766 4134 
L 525 4134 
L 525 4666 
z
" transform="scale(0.015625)"/>
       </defs>
       <use xlink:href="#DejaVuSans-1a"/>
      </g>
     </g>
    </g>
    <g id="ytick_4">
     <g id="line2d_22">
      <path d="M 37.199688 156.893812 
L 650.999688 156.893812 
" clip-path="url(#p510093f595)" style="fill: none; stroke: #b0b0b0; stroke-opacity: 0.2; stroke-width: 0.8; stroke-linecap: square"/>
     </g>
     <g id="line2d_23">
      <g>
       <use xlink:href="#m918f79869a" x="37.199688" y="156.893812" style="stroke: #000000; stroke-width: 0.8"/>
      </g>
     </g>
     <g id="text_12">
      <!-- 8 -->
      <g transform="translate(23.200938 161.072523) scale(0.11 -0.11)">
       <defs>
        <path id="DejaVuSans-1b" d="M 2034 2216 
Q 1584 2216 1326 1975 
Q 1069 1734 1069 1313 
Q 1069 891 1326 650 
Q 1584 409 2034 409 
Q 2484 409 2743 651 
Q 3003 894 3003 1313 
Q 3003 1734 2745 1975 
Q 2488 2216 2034 2216 
z
M 1403 2484 
Q 997 2584 770 2862 
Q 544 3141 544 3541 
Q 544 4100 942 4425 
Q 1341 4750 2034 4750 
Q 2731 4750 3128 4425 
Q 3525 4100 3525 3541 
Q 3525 3141 3298 2862 
Q 3072 2584 2669 2484 
Q 3125 2378 3379 2068 
Q 3634 1759 3634 1313 
Q 3634 634 3220 271 
Q 2806 -91 2034 -91 
Q 1263 -91 848 271 
Q 434 634 434 1313 
Q 434 1759 690 2068 
Q 947 2378 1403 2484 
z
M 1172 3481 
Q 1172 3119 1398 2916 
Q 1625 2713 2034 2713 
Q 2441 2713 2670 2916 
Q 2900 3119 2900 3481 
Q 2900 3844 2670 4047 
Q 2441 4250 2034 4250 
Q 1625 4250 1398 4047 
Q 1172 3844 1172 3481 
z
" transform="scale(0.015625)"/>
       </defs>
       <use xlink:href="#DejaVuSans-1b"/>
      </g>
     </g>
    </g>
    <g id="ytick_5">
     <g id="line2d_24">
      <path d="M 37.199688 68.189812 
L 650.999688 68.189812 
" clip-path="url(#p510093f595)" style="fill: none; stroke: #b0b0b0; stroke-opacity: 0.2; stroke-width: 0.8; stroke-linecap: square"/>
     </g>
     <g id="line2d_25">
      <g>
       <use xlink:href="#m918f79869a" x="37.199688" y="68.189812" style="stroke: #000000; stroke-width: 0.8"/>
      </g>
     </g>
     <g id="text_13">
      <!-- 9 -->
      <g transform="translate(23.200938 72.368523) scale(0.11 -0.11)">
       <defs>
        <path id="DejaVuSans-1c" d="M 703 97 
L 703 672 
Q 941 559 1184 500 
Q 1428 441 1663 441 
Q 2288 441 2617 861 
Q 2947 1281 2994 2138 
Q 2813 1869 2534 1725 
Q 2256 1581 1919 1581 
Q 1219 1581 811 2004 
Q 403 2428 403 3163 
Q 403 3881 828 4315 
Q 1253 4750 1959 4750 
Q 2769 4750 3195 4129 
Q 3622 3509 3622 2328 
Q 3622 1225 3098 567 
Q 2575 -91 1691 -91 
Q 1453 -91 1209 -44 
Q 966 3 703 97 
z
M 1959 2075 
Q 2384 2075 2632 2365 
Q 2881 2656 2881 3163 
Q 2881 3666 2632 3958 
Q 2384 4250 1959 4250 
Q 1534 4250 1286 3958 
Q 1038 3666 1038 3163 
Q 1038 2656 1286 2365 
Q 1534 2075 1959 2075 
z
" transform="scale(0.015625)"/>
       </defs>
       <use xlink:href="#DejaVuSans-1c"/>
      </g>
     </g>
    </g>
    <g id="text_14">
     <!-- Average overall score (/10, mean of both evaluators) -->
     <g transform="translate(16.318125 404.460937) rotate(-90) scale(0.12 -0.12)">
      <defs>
       <path id="DejaVuSans-24" d="M 2188 4044 
L 1331 1722 
L 3047 1722 
L 2188 4044 
z
M 1831 4666 
L 2547 4666 
L 4325 0 
L 3669 0 
L 3244 1197 
L 1141 1197 
L 716 0 
L 50 0 
L 1831 4666 
z
" transform="scale(0.015625)"/>
       <path id="DejaVuSans-59" d="M 191 3500 
L 800 3500 
L 1894 563 
L 2988 3500 
L 3597 3500 
L 2284 0 
L 1503 0 
L 191 3500 
z
" transform="scale(0.015625)"/>
       <path id="DejaVuSans-48" d="M 3597 1894 
L 3597 1613 
L 953 1613 
Q 991 1019 1311 708 
Q 1631 397 2203 397 
Q 2534 397 2845 478 
Q 3156 559 3463 722 
L 3463 178 
Q 3153 47 2828 -22 
Q 2503 -91 2169 -91 
Q 1331 -91 842 396 
Q 353 884 353 1716 
Q 353 2575 817 3079 
Q 1281 3584 2069 3584 
Q 2775 3584 3186 3129 
Q 3597 2675 3597 1894 
z
M 3022 2063 
Q 3016 2534 2758 2815 
Q 2500 3097 2075 3097 
Q 1594 3097 1305 2825 
Q 1016 2553 972 2059 
L 3022 2063 
z
" transform="scale(0.015625)"/>
       <path id="DejaVuSans-44" d="M 2194 1759 
Q 1497 1759 1228 1600 
Q 959 1441 959 1056 
Q 959 750 1161 570 
Q 1363 391 1709 391 
Q 2188 391 2477 730 
Q 2766 1069 2766 1631 
L 2766 1759 
L 2194 1759 
z
M 3341 1997 
L 3341 0 
L 2766 0 
L 2766 531 
Q 2569 213 2275 61 
Q 1981 -91 1556 -91 
Q 1019 -91 701 211 
Q 384 513 384 1019 
Q 384 1609 779 1909 
Q 1175 2209 1959 2209 
L 2766 2209 
L 2766 2266 
Q 2766 2663 2505 2880 
Q 2244 3097 1772 3097 
Q 1472 3097 1187 3025 
Q 903 2953 641 2809 
L 641 3341 
Q 956 3463 1253 3523 
Q 1550 3584 1831 3584 
Q 2591 3584 2966 3190 
Q 3341 2797 3341 1997 
z
" transform="scale(0.015625)"/>
       <path id="DejaVuSans-4a" d="M 2906 1791 
Q 2906 2416 2648 2759 
Q 2391 3103 1925 3103 
Q 1463 3103 1205 2759 
Q 947 2416 947 1791 
Q 947 1169 1205 825 
Q 1463 481 1925 481 
Q 2391 481 2648 825 
Q 2906 1169 2906 1791 
z
M 3481 434 
Q 3481 -459 3084 -895 
Q 2688 -1331 1869 -1331 
Q 1566 -1331 1297 -1286 
Q 1028 -1241 775 -1147 
L 775 -588 
Q 1028 -725 1275 -790 
Q 1522 -856 1778 -856 
Q 2344 -856 2625 -561 
Q 2906 -266 2906 331 
L 2906 616 
Q 2728 306 2450 153 
Q 2172 0 1784 0 
Q 1141 0 747 490 
Q 353 981 353 1791 
Q 353 2603 747 3093 
Q 1141 3584 1784 3584 
Q 2172 3584 2450 3431 
Q 2728 3278 2906 2969 
L 2906 3500 
L 3481 3500 
L 3481 434 
z
" transform="scale(0.015625)"/>
       <path id="DejaVuSans-4f" d="M 603 4863 
L 1178 4863 
L 1178 0 
L 603 0 
L 603 4863 
z
" transform="scale(0.015625)"/>
       <path id="DejaVuSans-12" d="M 1625 4666 
L 2156 4666 
L 531 -594 
L 0 -594 
L 1625 4666 
z
" transform="scale(0.015625)"/>
       <path id="DejaVuSans-f" d="M 750 794 
L 1409 794 
L 1409 256 
L 897 -744 
L 494 -744 
L 750 256 
L 750 794 
z
" transform="scale(0.015625)"/>
       <path id="DejaVuSans-50" d="M 3328 2828 
Q 3544 3216 3844 3400 
Q 4144 3584 4550 3584 
Q 5097 3584 5394 3201 
Q 5691 2819 5691 2113 
L 5691 0 
L 5113 0 
L 5113 2094 
Q 5113 2597 4934 2840 
Q 4756 3084 4391 3084 
Q 3944 3084 3684 2787 
Q 3425 2491 3425 1978 
L 3425 0 
L 2847 0 
L 2847 2094 
Q 2847 2600 2669 2842 
Q 2491 3084 2119 3084 
Q 1678 3084 1418 2786 
Q 1159 2488 1159 1978 
L 1159 0 
L 581 0 
L 581 3500 
L 1159 3500 
L 1159 2956 
Q 1356 3278 1631 3431 
Q 1906 3584 2284 3584 
Q 2666 3584 2933 3390 
Q 3200 3197 3328 2828 
z
" transform="scale(0.015625)"/>
       <path id="DejaVuSans-49" d="M 2375 4863 
L 2375 4384 
L 1825 4384 
Q 1516 4384 1395 4259 
Q 1275 4134 1275 3809 
L 1275 3500 
L 2222 3500 
L 2222 3053 
L 1275 3053 
L 1275 0 
L 697 0 
L 697 3053 
L 147 3053 
L 147 3500 
L 697 3500 
L 697 3744 
Q 697 4328 969 4595 
Q 1241 4863 1831 4863 
L 2375 4863 
z
" transform="scale(0.015625)"/>
       <path id="DejaVuSans-45" d="M 3116 1747 
Q 3116 2381 2855 2742 
Q 2594 3103 2138 3103 
Q 1681 3103 1420 2742 
Q 1159 2381 1159 1747 
Q 1159 1113 1420 752 
Q 1681 391 2138 391 
Q 2594 391 2855 752 
Q 3116 1113 3116 1747 
z
M 1159 2969 
Q 1341 3281 1617 3432 
Q 1894 3584 2278 3584 
Q 2916 3584 3314 3078 
Q 3713 2572 3713 1747 
Q 3713 922 3314 415 
Q 2916 -91 2278 -91 
Q 1894 -91 1617 61 
Q 1341 213 1159 525 
L 1159 0 
L 581 0 
L 581 4863 
L 1159 4863 
L 1159 2969 
z
" transform="scale(0.015625)"/>
       <path id="DejaVuSans-4b" d="M 3513 2113 
L 3513 0 
L 2938 0 
L 2938 2094 
Q 2938 2591 2744 2837 
Q 2550 3084 2163 3084 
Q 1697 3084 1428 2787 
Q 1159 2491 1159 1978 
L 1159 0 
L 581 0 
L 581 4863 
L 1159 4863 
L 1159 2956 
Q 1366 3272 1645 3428 
Q 1925 3584 2291 3584 
Q 2894 3584 3203 3211 
Q 3513 2838 3513 2113 
z
" transform="scale(0.015625)"/>
      </defs>
      <use xlink:href="#DejaVuSans-24"/>
      <use xlink:href="#DejaVuSans-59" transform="translate(62.546875 0)"/>
      <use xlink:href="#DejaVuSans-48" transform="translate(121.734375 0)"/>
      <use xlink:href="#DejaVuSans-55" transform="translate(183.265625 0)"/>
      <use xlink:href="#DejaVuSans-44" transform="translate(224.375 0)"/>
      <use xlink:href="#DejaVuSans-4a" transform="translate(285.65625 0)"/>
      <use xlink:href="#DejaVuSans-48" transform="translate(349.140625 0)"/>
      <use xlink:href="#DejaVuSans-3" transform="translate(410.671875 0)"/>
      <use xlink:href="#DejaVuSans-52" transform="translate(442.453125 0)"/>
      <use xlink:href="#DejaVuSans-59" transform="translate(503.640625 0)"/>
      <use xlink:href="#DejaVuSans-48" transform="translate(562.828125 0)"/>
      <use xlink:href="#DejaVuSans-55" transform="translate(624.359375 0)"/>
      <use xlink:href="#DejaVuSans-44" transform="translate(665.46875 0)"/>
      <use xlink:href="#DejaVuSans-4f" transform="translate(726.75 0)"/>
      <use xlink:href="#DejaVuSans-4f" transform="translate(754.53125 0)"/>
      <use xlink:href="#DejaVuSans-3" transform="translate(782.3125 0)"/>
      <use xlink:href="#DejaVuSans-56" transform="translate(814.09375 0)"/>
      <use xlink:href="#DejaVuSans-46" transform="translate(866.1875 0)"/>
      <use xlink:href="#DejaVuSans-52" transform="translate(921.171875 0)"/>
      <use xlink:href="#DejaVuSans-55" transform="translate(982.359375 0)"/>
      <use xlink:href="#DejaVuSans-48" transform="translate(1021.265625 0)"/>
      <use xlink:href="#DejaVuSans-3" transform="translate(1082.796875 0)"/>
      <use xlink:href="#DejaVuSans-b" transform="translate(1114.578125 0)"/>
      <use xlink:href="#DejaVuSans-12" transform="translate(1153.59375 0)"/>
      <use xlink:href="#DejaVuSans-14" transform="translate(1187.28125 0)"/>
      <use xlink:href="#DejaVuSans-13" transform="translate(1250.90625 0)"/>
      <use xlink:href="#DejaVuSans-f" transform="translate(1314.53125 0)"/>
      <use xlink:href="#DejaVuSans-3" transform="translate(1346.3125 0)"/>
      <use xlink:href="#DejaVuSans-50" transform="translate(1378.09375 0)"/>
      <use xlink:href="#DejaVuSans-48" transform="translate(1475.5 0)"/>
      <use xlink:href="#DejaVuSans-44" transform="translate(1537.03125 0)"/>
      <use xlink:href="#DejaVuSans-51" transform="translate(1598.3125 0)"/>
      <use xlink:href="#DejaVuSans-3" transform="translate(1661.6875 0)"/>
      <use xlink:href="#DejaVuSans-52" transform="translate(1693.46875 0)"/>
      <use xlink:href="#DejaVuSans-49" transform="translate(1754.65625 0)"/>
      <use xlink:href="#DejaVuSans-3" transform="translate(1789.859375 0)"/>
      <use xlink:href="#DejaVuSans-45" transform="translate(1821.640625 0)"/>
      <use xlink:href="#DejaVuSans-52" transform="translate(1885.125 0)"/>
      <use xlink:href="#DejaVuSans-57" transform="translate(1946.3125 0)"/>
      <use xlink:href="#DejaVuSans-4b" transform="translate(1985.515625 0)"/>
      <use xlink:href="#DejaVuSans-3" transform="translate(2048.890625 0)"/>
      <use xlink:href="#DejaVuSans-48" transform="translate(2080.671875 0)"/>
      <use xlink:href="#DejaVuSans-59" transform="translate(2142.203125 0)"/>
      <use xlink:href="#DejaVuSans-44" transform="translate(2201.390625 0)"/>
      <use xlink:href="#DejaVuSans-4f" transform="translate(2262.671875 0)"/>
      <use xlink:href="#DejaVuSans-58" transform="translate(2290.453125 0)"/>
      <use xlink:href="#DejaVuSans-44" transform="translate(2353.828125 0)"/>
      <use xlink:href="#DejaVuSans-57" transform="translate(2415.109375 0)"/>
      <use xlink:href="#DejaVuSans-52" transform="translate(2454.3125 0)"/>
      <use xlink:href="#DejaVuSans-55" transform="translate(2515.5 0)"/>
      <use xlink:href="#DejaVuSans-56" transform="translate(2556.609375 0)"/>
      <use xlink:href="#DejaVuSans-c" transform="translate(2608.703125 0)"/>
     </g>
    </g>
   </g>
   <g id="patch_3">
    <path d="M 37.199688 467.357812 
L 37.199688 23.837812 
" style="fill: none; stroke: #000000; stroke-width: 0.8; stroke-linejoin: miter; stroke-linecap: square"/>
   </g>
   <g id="patch_4">
    <path d="M 37.199688 467.357812 
L 650.999688 467.357812 
" style="fill: none; stroke: #000000; stroke-width: 0.8; stroke-linejoin: miter; stroke-linecap: square"/>
   </g>
   <g id="text_15">
    <!-- Luna Max -->
    <g transform="translate(277.889688 123.850552) scale(0.09 -0.09)">
     <defs>
      <path id="DejaVuSans-Bold-2f" d="M 588 4666 
L 1791 4666 
L 1791 909 
L 3903 909 
L 3903 0 
L 588 0 
L 588 4666 
z
" transform="scale(0.015625)"/>
      <path id="DejaVuSans-Bold-58" d="M 500 1363 
L 500 3500 
L 1625 3500 
L 1625 3150 
Q 1625 2866 1622 2436 
Q 1619 2006 1619 1863 
Q 1619 1441 1641 1255 
Q 1663 1069 1716 984 
Q 1784 875 1895 815 
Q 2006 756 2150 756 
Q 2500 756 2700 1025 
Q 2900 1294 2900 1772 
L 2900 3500 
L 4019 3500 
L 4019 0 
L 2900 0 
L 2900 506 
Q 2647 200 2364 54 
Q 2081 -91 1741 -91 
Q 1134 -91 817 281 
Q 500 653 500 1363 
z
" transform="scale(0.015625)"/>
      <path id="DejaVuSans-Bold-51" d="M 4056 2131 
L 4056 0 
L 2931 0 
L 2931 347 
L 2931 1631 
Q 2931 2084 2911 2256 
Q 2891 2428 2841 2509 
Q 2775 2619 2662 2680 
Q 2550 2741 2406 2741 
Q 2056 2741 1856 2470 
Q 1656 2200 1656 1722 
L 1656 0 
L 538 0 
L 538 3500 
L 1656 3500 
L 1656 2988 
Q 1909 3294 2193 3439 
Q 2478 3584 2822 3584 
Q 3428 3584 3742 3212 
Q 4056 2841 4056 2131 
z
" transform="scale(0.015625)"/>
      <path id="DejaVuSans-Bold-44" d="M 2106 1575 
Q 1756 1575 1579 1456 
Q 1403 1338 1403 1106 
Q 1403 894 1545 773 
Q 1688 653 1941 653 
Q 2256 653 2472 879 
Q 2688 1106 2688 1447 
L 2688 1575 
L 2106 1575 
z
M 3816 1997 
L 3816 0 
L 2688 0 
L 2688 519 
Q 2463 200 2181 54 
Q 1900 -91 1497 -91 
Q 953 -91 614 226 
Q 275 544 275 1050 
Q 275 1666 698 1953 
Q 1122 2241 2028 2241 
L 2688 2241 
L 2688 2328 
Q 2688 2594 2478 2717 
Q 2269 2841 1825 2841 
Q 1466 2841 1156 2769 
Q 847 2697 581 2553 
L 581 3406 
Q 941 3494 1303 3539 
Q 1666 3584 2028 3584 
Q 2975 3584 3395 3211 
Q 3816 2838 3816 1997 
z
" transform="scale(0.015625)"/>
      <path id="DejaVuSans-Bold-3" transform="scale(0.015625)"/>
      <path id="DejaVuSans-Bold-30" d="M 588 4666 
L 2119 4666 
L 3181 2169 
L 4250 4666 
L 5778 4666 
L 5778 0 
L 4641 0 
L 4641 3413 
L 3566 897 
L 2803 897 
L 1728 3413 
L 1728 0 
L 588 0 
L 588 4666 
z
" transform="scale(0.015625)"/>
      <path id="DejaVuSans-Bold-5b" d="M 1422 1791 
L 159 3500 
L 1344 3500 
L 2059 2463 
L 2784 3500 
L 3969 3500 
L 2706 1797 
L 4031 0 
L 2847 0 
L 2059 1106 
L 1281 0 
L 97 0 
L 1422 1791 
z
" transform="scale(0.015625)"/>
     </defs>
     <use xlink:href="#DejaVuSans-Bold-2f"/>
     <use xlink:href="#DejaVuSans-Bold-58" transform="translate(63.71875 0)"/>
     <use xlink:href="#DejaVuSans-Bold-51" transform="translate(134.90625 0)"/>
     <use xlink:href="#DejaVuSans-Bold-44" transform="translate(206.09375 0)"/>
     <use xlink:href="#DejaVuSans-Bold-3" transform="translate(273.578125 0)"/>
     <use xlink:href="#DejaVuSans-Bold-30" transform="translate(308.390625 0)"/>
     <use xlink:href="#DejaVuSans-Bold-44" transform="translate(407.90625 0)"/>
     <use xlink:href="#DejaVuSans-Bold-5b" transform="translate(475.390625 0)"/>
    </g>
    <!-- (14 findings) -->
    <g transform="translate(277.889688 134.653012) scale(0.09 -0.09)">
     <defs>
      <path id="DejaVuSans-Bold-b" d="M 2413 -844 
L 1484 -844 
Q 1006 -72 778 623 
Q 550 1319 550 2003 
Q 550 2688 779 3389 
Q 1009 4091 1484 4856 
L 2413 4856 
Q 2013 4116 1813 3408 
Q 1613 2700 1613 2009 
Q 1613 1319 1811 609 
Q 2009 -100 2413 -844 
z
" transform="scale(0.015625)"/>
      <path id="DejaVuSans-Bold-14" d="M 750 831 
L 1813 831 
L 1813 3847 
L 722 3622 
L 722 4441 
L 1806 4666 
L 2950 4666 
L 2950 831 
L 4013 831 
L 4013 0 
L 750 0 
L 750 831 
z
" transform="scale(0.015625)"/>
      <path id="DejaVuSans-Bold-17" d="M 2356 3675 
L 1038 1722 
L 2356 1722 
L 2356 3675 
z
M 2156 4666 
L 3494 4666 
L 3494 1722 
L 4159 1722 
L 4159 850 
L 3494 850 
L 3494 0 
L 2356 0 
L 2356 850 
L 288 850 
L 288 1881 
L 2156 4666 
z
" transform="scale(0.015625)"/>
      <path id="DejaVuSans-Bold-13ab" d="M 3078 4863 
L 4206 4863 
L 4206 3950 
L 3078 3950 
L 3078 4863 
z
M 2847 4863 
L 2847 4128 
L 2228 4128 
Q 1994 4128 1903 4042 
Q 1813 3956 1813 3744 
L 1813 3500 
L 4206 3500 
L 4206 0 
L 3078 0 
L 3078 2700 
L 1813 2700 
L 1813 0 
L 684 0 
L 684 2700 
L 134 2700 
L 134 3500 
L 684 3500 
L 684 3744 
Q 684 4316 1003 4589 
Q 1322 4863 1991 4863 
L 2847 4863 
z
" transform="scale(0.015625)"/>
      <path id="DejaVuSans-Bold-47" d="M 2919 2988 
L 2919 4863 
L 4044 4863 
L 4044 0 
L 2919 0 
L 2919 506 
Q 2688 197 2409 53 
Q 2131 -91 1766 -91 
Q 1119 -91 703 423 
Q 288 938 288 1747 
Q 288 2556 703 3070 
Q 1119 3584 1766 3584 
Q 2128 3584 2408 3439 
Q 2688 3294 2919 2988 
z
M 2181 722 
Q 2541 722 2730 984 
Q 2919 1247 2919 1747 
Q 2919 2247 2730 2509 
Q 2541 2772 2181 2772 
Q 1825 2772 1636 2509 
Q 1447 2247 1447 1747 
Q 1447 1247 1636 984 
Q 1825 722 2181 722 
z
" transform="scale(0.015625)"/>
      <path id="DejaVuSans-Bold-4c" d="M 538 3500 
L 1656 3500 
L 1656 0 
L 538 0 
L 538 3500 
z
M 538 4863 
L 1656 4863 
L 1656 3950 
L 538 3950 
L 538 4863 
z
" transform="scale(0.015625)"/>
      <path id="DejaVuSans-Bold-4a" d="M 2919 594 
Q 2688 288 2409 144 
Q 2131 0 1766 0 
Q 1125 0 706 504 
Q 288 1009 288 1791 
Q 288 2575 706 3076 
Q 1125 3578 1766 3578 
Q 2131 3578 2409 3434 
Q 2688 3291 2919 2981 
L 2919 3500 
L 4044 3500 
L 4044 353 
Q 4044 -491 3511 -936 
Q 2978 -1381 1966 -1381 
Q 1638 -1381 1331 -1331 
Q 1025 -1281 716 -1178 
L 716 -306 
Q 1009 -475 1290 -558 
Q 1572 -641 1856 -641 
Q 2406 -641 2662 -400 
Q 2919 -159 2919 353 
L 2919 594 
z
M 2181 2772 
Q 1834 2772 1640 2515 
Q 1447 2259 1447 1791 
Q 1447 1309 1634 1061 
Q 1822 813 2181 813 
Q 2531 813 2725 1069 
Q 2919 1325 2919 1791 
Q 2919 2259 2725 2515 
Q 2531 2772 2181 2772 
z
" transform="scale(0.015625)"/>
      <path id="DejaVuSans-Bold-56" d="M 3272 3391 
L 3272 2541 
Q 2913 2691 2578 2766 
Q 2244 2841 1947 2841 
Q 1628 2841 1473 2761 
Q 1319 2681 1319 2516 
Q 1319 2381 1436 2309 
Q 1553 2238 1856 2203 
L 2053 2175 
Q 2913 2066 3209 1816 
Q 3506 1566 3506 1031 
Q 3506 472 3093 190 
Q 2681 -91 1863 -91 
Q 1516 -91 1145 -36 
Q 775 19 384 128 
L 384 978 
Q 719 816 1070 734 
Q 1422 653 1784 653 
Q 2113 653 2278 743 
Q 2444 834 2444 1013 
Q 2444 1163 2330 1236 
Q 2216 1309 1875 1350 
L 1678 1375 
Q 931 1469 631 1722 
Q 331 1975 331 2491 
Q 331 3047 712 3315 
Q 1094 3584 1881 3584 
Q 2191 3584 2531 3537 
Q 2872 3491 3272 3391 
z
" transform="scale(0.015625)"/>
      <path id="DejaVuSans-Bold-c" d="M 513 -844 
Q 913 -100 1113 609 
Q 1313 1319 1313 2009 
Q 1313 2700 1113 3408 
Q 913 4116 513 4856 
L 1441 4856 
Q 1916 4091 2145 3389 
Q 2375 2688 2375 2003 
Q 2375 1319 2147 623 
Q 1919 -72 1441 -844 
L 513 -844 
z
" transform="scale(0.015625)"/>
     </defs>
     <use xlink:href="#DejaVuSans-Bold-b"/>
     <use xlink:href="#DejaVuSans-Bold-14" transform="translate(45.703125 0)"/>
     <use xlink:href="#DejaVuSans-Bold-17" transform="translate(115.28125 0)"/>
     <use xlink:href="#DejaVuSans-Bold-3" transform="translate(184.859375 0)"/>
     <use xlink:href="#DejaVuSans-Bold-13ab" transform="translate(219.671875 0)"/>
     <use xlink:href="#DejaVuSans-Bold-51" transform="translate(293.796875 0)"/>
     <use xlink:href="#DejaVuSans-Bold-47" transform="translate(364.984375 0)"/>
     <use xlink:href="#DejaVuSans-Bold-4c" transform="translate(436.5625 0)"/>
     <use xlink:href="#DejaVuSans-Bold-51" transform="translate(470.84375 0)"/>
     <use xlink:href="#DejaVuSans-Bold-4a" transform="translate(542.03125 0)"/>
     <use xlink:href="#DejaVuSans-Bold-56" transform="translate(613.609375 0)"/>
     <use xlink:href="#DejaVuSans-Bold-c" transform="translate(673.125 0)"/>
    </g>
   </g>
   <g id="text_16">
    <!-- Sol High -->
    <g transform="translate(571.919688 92.804152) scale(0.09 -0.09)">
     <defs>
      <path id="DejaVuSans-Bold-36" d="M 3834 4519 
L 3834 3531 
Q 3450 3703 3084 3790 
Q 2719 3878 2394 3878 
Q 1963 3878 1756 3759 
Q 1550 3641 1550 3391 
Q 1550 3203 1689 3098 
Q 1828 2994 2194 2919 
L 2706 2816 
Q 3484 2659 3812 2340 
Q 4141 2022 4141 1434 
Q 4141 663 3683 286 
Q 3225 -91 2284 -91 
Q 1841 -91 1394 -6 
Q 947 78 500 244 
L 500 1259 
Q 947 1022 1364 901 
Q 1781 781 2169 781 
Q 2563 781 2772 912 
Q 2981 1044 2981 1288 
Q 2981 1506 2839 1625 
Q 2697 1744 2272 1838 
L 1806 1941 
Q 1106 2091 782 2419 
Q 459 2747 459 3303 
Q 459 4000 909 4375 
Q 1359 4750 2203 4750 
Q 2588 4750 2994 4692 
Q 3400 4634 3834 4519 
z
" transform="scale(0.015625)"/>
      <path id="DejaVuSans-Bold-52" d="M 2203 2784 
Q 1831 2784 1636 2517 
Q 1441 2250 1441 1747 
Q 1441 1244 1636 976 
Q 1831 709 2203 709 
Q 2569 709 2762 976 
Q 2956 1244 2956 1747 
Q 2956 2250 2762 2517 
Q 2569 2784 2203 2784 
z
M 2203 3584 
Q 3106 3584 3614 3096 
Q 4122 2609 4122 1747 
Q 4122 884 3614 396 
Q 3106 -91 2203 -91 
Q 1297 -91 786 396 
Q 275 884 275 1747 
Q 275 2609 786 3096 
Q 1297 3584 2203 3584 
z
" transform="scale(0.015625)"/>
      <path id="DejaVuSans-Bold-4f" d="M 538 4863 
L 1656 4863 
L 1656 0 
L 538 0 
L 538 4863 
z
" transform="scale(0.015625)"/>
      <path id="DejaVuSans-Bold-2b" d="M 588 4666 
L 1791 4666 
L 1791 2888 
L 3566 2888 
L 3566 4666 
L 4769 4666 
L 4769 0 
L 3566 0 
L 3566 1978 
L 1791 1978 
L 1791 0 
L 588 0 
L 588 4666 
z
" transform="scale(0.015625)"/>
      <path id="DejaVuSans-Bold-4b" d="M 4056 2131 
L 4056 0 
L 2931 0 
L 2931 347 
L 2931 1625 
Q 2931 2084 2911 2256 
Q 2891 2428 2841 2509 
Q 2775 2619 2662 2680 
Q 2550 2741 2406 2741 
Q 2056 2741 1856 2470 
Q 1656 2200 1656 1722 
L 1656 0 
L 538 0 
L 538 4863 
L 1656 4863 
L 1656 2988 
Q 1909 3294 2193 3439 
Q 2478 3584 2822 3584 
Q 3428 3584 3742 3212 
Q 4056 2841 4056 2131 
z
" transform="scale(0.015625)"/>
     </defs>
     <use xlink:href="#DejaVuSans-Bold-36"/>
     <use xlink:href="#DejaVuSans-Bold-52" transform="translate(72.015625 0)"/>
     <use xlink:href="#DejaVuSans-Bold-4f" transform="translate(140.71875 0)"/>
     <use xlink:href="#DejaVuSans-Bold-3" transform="translate(175 0)"/>
     <use xlink:href="#DejaVuSans-Bold-2b" transform="translate(209.8125 0)"/>
     <use xlink:href="#DejaVuSans-Bold-4c" transform="translate(293.5 0)"/>
     <use xlink:href="#DejaVuSans-Bold-4a" transform="translate(327.78125 0)"/>
     <use xlink:href="#DejaVuSans-Bold-4b" transform="translate(399.359375 0)"/>
    </g>
    <!-- (11 findings) -->
    <g transform="translate(571.919688 103.606612) scale(0.09 -0.09)">
     <use xlink:href="#DejaVuSans-Bold-b"/>
     <use xlink:href="#DejaVuSans-Bold-14" transform="translate(45.703125 0)"/>
     <use xlink:href="#DejaVuSans-Bold-14" transform="translate(115.28125 0)"/>
     <use xlink:href="#DejaVuSans-Bold-3" transform="translate(184.859375 0)"/>
     <use xlink:href="#DejaVuSans-Bold-13ab" transform="translate(219.671875 0)"/>
     <use xlink:href="#DejaVuSans-Bold-51" transform="translate(293.796875 0)"/>
     <use xlink:href="#DejaVuSans-Bold-47" transform="translate(364.984375 0)"/>
     <use xlink:href="#DejaVuSans-Bold-4c" transform="translate(436.5625 0)"/>
     <use xlink:href="#DejaVuSans-Bold-51" transform="translate(470.84375 0)"/>
     <use xlink:href="#DejaVuSans-Bold-4a" transform="translate(542.03125 0)"/>
     <use xlink:href="#DejaVuSans-Bold-56" transform="translate(613.609375 0)"/>
     <use xlink:href="#DejaVuSans-Bold-c" transform="translate(673.125 0)"/>
    </g>
   </g>
   <g id="text_17">
    <!-- Luna XHigh -->
    <g transform="translate(206.609688 182.258152) scale(0.09 -0.09)">
     <defs>
      <path id="DejaVuSans-Bold-3b" d="M 3188 2381 
L 4806 0 
L 3553 0 
L 2463 1594 
L 1381 0 
L 122 0 
L 1741 2381 
L 184 4666 
L 1441 4666 
L 2463 3163 
L 3481 4666 
L 4744 4666 
L 3188 2381 
z
" transform="scale(0.015625)"/>
     </defs>
     <use xlink:href="#DejaVuSans-Bold-2f"/>
     <use xlink:href="#DejaVuSans-Bold-58" transform="translate(63.71875 0)"/>
     <use xlink:href="#DejaVuSans-Bold-51" transform="translate(134.90625 0)"/>
     <use xlink:href="#DejaVuSans-Bold-44" transform="translate(206.09375 0)"/>
     <use xlink:href="#DejaVuSans-Bold-3" transform="translate(273.578125 0)"/>
     <use xlink:href="#DejaVuSans-Bold-3b" transform="translate(308.390625 0)"/>
     <use xlink:href="#DejaVuSans-Bold-2b" transform="translate(385.484375 0)"/>
     <use xlink:href="#DejaVuSans-Bold-4c" transform="translate(469.171875 0)"/>
     <use xlink:href="#DejaVuSans-Bold-4a" transform="translate(503.453125 0)"/>
     <use xlink:href="#DejaVuSans-Bold-4b" transform="translate(575.03125 0)"/>
    </g>
    <!-- (13 findings) -->
    <g transform="translate(206.609688 193.060612) scale(0.09 -0.09)">
     <defs>
      <path id="DejaVuSans-Bold-16" d="M 2981 2516 
Q 3453 2394 3698 2092 
Q 3944 1791 3944 1325 
Q 3944 631 3412 270 
Q 2881 -91 1863 -91 
Q 1503 -91 1142 -33 
Q 781 25 428 141 
L 428 1069 
Q 766 900 1098 814 
Q 1431 728 1753 728 
Q 2231 728 2486 893 
Q 2741 1059 2741 1369 
Q 2741 1688 2480 1852 
Q 2219 2016 1709 2016 
L 1228 2016 
L 1228 2791 
L 1734 2791 
Q 2188 2791 2409 2933 
Q 2631 3075 2631 3366 
Q 2631 3634 2415 3781 
Q 2200 3928 1806 3928 
Q 1516 3928 1219 3862 
Q 922 3797 628 3669 
L 628 4550 
Q 984 4650 1334 4700 
Q 1684 4750 2022 4750 
Q 2931 4750 3382 4451 
Q 3834 4153 3834 3553 
Q 3834 3144 3618 2883 
Q 3403 2622 2981 2516 
z
" transform="scale(0.015625)"/>
     </defs>
     <use xlink:href="#DejaVuSans-Bold-b"/>
     <use xlink:href="#DejaVuSans-Bold-14" transform="translate(45.703125 0)"/>
     <use xlink:href="#DejaVuSans-Bold-16" transform="translate(115.28125 0)"/>
     <use xlink:href="#DejaVuSans-Bold-3" transform="translate(184.859375 0)"/>
     <use xlink:href="#DejaVuSans-Bold-13ab" transform="translate(219.671875 0)"/>
     <use xlink:href="#DejaVuSans-Bold-51" transform="translate(293.796875 0)"/>
     <use xlink:href="#DejaVuSans-Bold-47" transform="translate(364.984375 0)"/>
     <use xlink:href="#DejaVuSans-Bold-4c" transform="translate(436.5625 0)"/>
     <use xlink:href="#DejaVuSans-Bold-51" transform="translate(470.84375 0)"/>
     <use xlink:href="#DejaVuSans-Bold-4a" transform="translate(542.03125 0)"/>
     <use xlink:href="#DejaVuSans-Bold-56" transform="translate(613.609375 0)"/>
     <use xlink:href="#DejaVuSans-Bold-c" transform="translate(673.125 0)"/>
    </g>
   </g>
   <g id="text_18">
    <!-- 5.5 XHigh -->
    <g transform="translate(586.769688 240.795352) scale(0.09 -0.09)">
     <defs>
      <path id="DejaVuSans-Bold-18" d="M 678 4666 
L 3669 4666 
L 3669 3781 
L 1638 3781 
L 1638 3059 
Q 1775 3097 1914 3117 
Q 2053 3138 2203 3138 
Q 3056 3138 3531 2711 
Q 4006 2284 4006 1522 
Q 4006 766 3489 337 
Q 2972 -91 2053 -91 
Q 1656 -91 1267 -14 
Q 878 63 494 219 
L 494 1166 
Q 875 947 1217 837 
Q 1559 728 1863 728 
Q 2300 728 2551 942 
Q 2803 1156 2803 1522 
Q 2803 1891 2551 2103 
Q 2300 2316 1863 2316 
Q 1603 2316 1309 2248 
Q 1016 2181 678 2041 
L 678 4666 
z
" transform="scale(0.015625)"/>
      <path id="DejaVuSans-Bold-11" d="M 653 1209 
L 1778 1209 
L 1778 0 
L 653 0 
L 653 1209 
z
" transform="scale(0.015625)"/>
     </defs>
     <use xlink:href="#DejaVuSans-Bold-18"/>
     <use xlink:href="#DejaVuSans-Bold-11" transform="translate(69.578125 0)"/>
     <use xlink:href="#DejaVuSans-Bold-18" transform="translate(107.5625 0)"/>
     <use xlink:href="#DejaVuSans-Bold-3" transform="translate(177.140625 0)"/>
     <use xlink:href="#DejaVuSans-Bold-3b" transform="translate(211.953125 0)"/>
     <use xlink:href="#DejaVuSans-Bold-2b" transform="translate(289.046875 0)"/>
     <use xlink:href="#DejaVuSans-Bold-4c" transform="translate(372.734375 0)"/>
     <use xlink:href="#DejaVuSans-Bold-4a" transform="translate(407.015625 0)"/>
     <use xlink:href="#DejaVuSans-Bold-4b" transform="translate(478.59375 0)"/>
    </g>
    <!-- (12 findings) -->
    <g transform="translate(586.769688 251.597812) scale(0.09 -0.09)">
     <defs>
      <path id="DejaVuSans-Bold-15" d="M 1844 884 
L 3897 884 
L 3897 0 
L 506 0 
L 506 884 
L 2209 2388 
Q 2438 2594 2547 2791 
Q 2656 2988 2656 3200 
Q 2656 3528 2436 3728 
Q 2216 3928 1850 3928 
Q 1569 3928 1234 3808 
Q 900 3688 519 3450 
L 519 4475 
Q 925 4609 1322 4679 
Q 1719 4750 2100 4750 
Q 2938 4750 3402 4381 
Q 3866 4013 3866 3353 
Q 3866 2972 3669 2642 
Q 3472 2313 2841 1759 
L 1844 884 
z
" transform="scale(0.015625)"/>
     </defs>
     <use xlink:href="#DejaVuSans-Bold-b"/>
     <use xlink:href="#DejaVuSans-Bold-14" transform="translate(45.703125 0)"/>
     <use xlink:href="#DejaVuSans-Bold-15" transform="translate(115.28125 0)"/>
     <use xlink:href="#DejaVuSans-Bold-3" transform="translate(184.859375 0)"/>
     <use xlink:href="#DejaVuSans-Bold-13ab" transform="translate(219.671875 0)"/>
     <use xlink:href="#DejaVuSans-Bold-51" transform="translate(293.796875 0)"/>
     <use xlink:href="#DejaVuSans-Bold-47" transform="translate(364.984375 0)"/>
     <use xlink:href="#DejaVuSans-Bold-4c" transform="translate(436.5625 0)"/>
     <use xlink:href="#DejaVuSans-Bold-51" transform="translate(470.84375 0)"/>
     <use xlink:href="#DejaVuSans-Bold-4a" transform="translate(542.03125 0)"/>
     <use xlink:href="#DejaVuSans-Bold-56" transform="translate(613.609375 0)"/>
     <use xlink:href="#DejaVuSans-Bold-c" transform="translate(673.125 0)"/>
    </g>
   </g>
   <g id="text_19">
    <!-- Sol Medium -->
    <g transform="translate(196.709688 206.813752) scale(0.09 -0.09)">
     <defs>
      <path id="DejaVuSans-Bold-48" d="M 4031 1759 
L 4031 1441 
L 1416 1441 
Q 1456 1047 1700 850 
Q 1944 653 2381 653 
Q 2734 653 3104 758 
Q 3475 863 3866 1075 
L 3866 213 
Q 3469 63 3072 -14 
Q 2675 -91 2278 -91 
Q 1328 -91 801 392 
Q 275 875 275 1747 
Q 275 2603 792 3093 
Q 1309 3584 2216 3584 
Q 3041 3584 3536 3087 
Q 4031 2591 4031 1759 
z
M 2881 2131 
Q 2881 2450 2695 2645 
Q 2509 2841 2209 2841 
Q 1884 2841 1681 2658 
Q 1478 2475 1428 2131 
L 2881 2131 
z
" transform="scale(0.015625)"/>
      <path id="DejaVuSans-Bold-50" d="M 3781 2919 
Q 3994 3244 4286 3414 
Q 4578 3584 4928 3584 
Q 5531 3584 5847 3212 
Q 6163 2841 6163 2131 
L 6163 0 
L 5038 0 
L 5038 1825 
Q 5041 1866 5042 1909 
Q 5044 1953 5044 2034 
Q 5044 2406 4934 2573 
Q 4825 2741 4581 2741 
Q 4263 2741 4089 2478 
Q 3916 2216 3909 1719 
L 3909 0 
L 2784 0 
L 2784 1825 
Q 2784 2406 2684 2573 
Q 2584 2741 2328 2741 
Q 2006 2741 1831 2477 
Q 1656 2213 1656 1722 
L 1656 0 
L 531 0 
L 531 3500 
L 1656 3500 
L 1656 2988 
Q 1863 3284 2130 3434 
Q 2397 3584 2719 3584 
Q 3081 3584 3359 3409 
Q 3638 3234 3781 2919 
z
" transform="scale(0.015625)"/>
     </defs>
     <use xlink:href="#DejaVuSans-Bold-36"/>
     <use xlink:href="#DejaVuSans-Bold-52" transform="translate(72.015625 0)"/>
     <use xlink:href="#DejaVuSans-Bold-4f" transform="translate(140.71875 0)"/>
     <use xlink:href="#DejaVuSans-Bold-3" transform="translate(175 0)"/>
     <use xlink:href="#DejaVuSans-Bold-30" transform="translate(209.8125 0)"/>
     <use xlink:href="#DejaVuSans-Bold-48" transform="translate(309.328125 0)"/>
     <use xlink:href="#DejaVuSans-Bold-47" transform="translate(377.15625 0)"/>
     <use xlink:href="#DejaVuSans-Bold-4c" transform="translate(448.734375 0)"/>
     <use xlink:href="#DejaVuSans-Bold-58" transform="translate(483.015625 0)"/>
     <use xlink:href="#DejaVuSans-Bold-50" transform="translate(554.203125 0)"/>
    </g>
    <!-- (9 findings) -->
    <g transform="translate(196.709688 217.616212) scale(0.09 -0.09)">
     <defs>
      <path id="DejaVuSans-Bold-1c" d="M 641 103 
L 641 966 
Q 928 831 1190 764 
Q 1453 697 1709 697 
Q 2247 697 2547 995 
Q 2847 1294 2900 1881 
Q 2688 1725 2447 1647 
Q 2206 1569 1925 1569 
Q 1209 1569 770 1986 
Q 331 2403 331 3084 
Q 331 3838 820 4291 
Q 1309 4744 2131 4744 
Q 3044 4744 3544 4128 
Q 4044 3513 4044 2388 
Q 4044 1231 3459 570 
Q 2875 -91 1856 -91 
Q 1528 -91 1228 -42 
Q 928 6 641 103 
z
M 2125 2350 
Q 2441 2350 2600 2554 
Q 2759 2759 2759 3169 
Q 2759 3575 2600 3781 
Q 2441 3988 2125 3988 
Q 1809 3988 1650 3781 
Q 1491 3575 1491 3169 
Q 1491 2759 1650 2554 
Q 1809 2350 2125 2350 
z
" transform="scale(0.015625)"/>
     </defs>
     <use xlink:href="#DejaVuSans-Bold-b"/>
     <use xlink:href="#DejaVuSans-Bold-1c" transform="translate(45.703125 0)"/>
     <use xlink:href="#DejaVuSans-Bold-3" transform="translate(115.28125 0)"/>
     <use xlink:href="#DejaVuSans-Bold-13ab" transform="translate(150.09375 0)"/>
     <use xlink:href="#DejaVuSans-Bold-51" transform="translate(224.21875 0)"/>
     <use xlink:href="#DejaVuSans-Bold-47" transform="translate(295.40625 0)"/>
     <use xlink:href="#DejaVuSans-Bold-4c" transform="translate(366.984375 0)"/>
     <use xlink:href="#DejaVuSans-Bold-51" transform="translate(401.265625 0)"/>
     <use xlink:href="#DejaVuSans-Bold-4a" transform="translate(472.453125 0)"/>
     <use xlink:href="#DejaVuSans-Bold-56" transform="translate(544.03125 0)"/>
     <use xlink:href="#DejaVuSans-Bold-c" transform="translate(603.546875 0)"/>
    </g>
   </g>
   <g id="text_20">
    <!-- Luna High -->
    <g transform="translate(153.149688 256.906552) scale(0.09 -0.09)">
     <use xlink:href="#DejaVuSans-Bold-2f"/>
     <use xlink:href="#DejaVuSans-Bold-58" transform="translate(63.71875 0)"/>
     <use xlink:href="#DejaVuSans-Bold-51" transform="translate(134.90625 0)"/>
     <use xlink:href="#DejaVuSans-Bold-44" transform="translate(206.09375 0)"/>
     <use xlink:href="#DejaVuSans-Bold-3" transform="translate(273.578125 0)"/>
     <use xlink:href="#DejaVuSans-Bold-2b" transform="translate(308.390625 0)"/>
     <use xlink:href="#DejaVuSans-Bold-4c" transform="translate(392.078125 0)"/>
     <use xlink:href="#DejaVuSans-Bold-4a" transform="translate(426.359375 0)"/>
     <use xlink:href="#DejaVuSans-Bold-4b" transform="translate(497.9375 0)"/>
    </g>
    <!-- (8 findings) -->
    <g transform="translate(153.149688 267.709012) scale(0.09 -0.09)">
     <defs>
      <path id="DejaVuSans-Bold-1b" d="M 2228 2088 
Q 1891 2088 1709 1903 
Q 1528 1719 1528 1375 
Q 1528 1031 1709 848 
Q 1891 666 2228 666 
Q 2563 666 2741 848 
Q 2919 1031 2919 1375 
Q 2919 1722 2741 1905 
Q 2563 2088 2228 2088 
z
M 1350 2484 
Q 925 2613 709 2878 
Q 494 3144 494 3541 
Q 494 4131 934 4440 
Q 1375 4750 2228 4750 
Q 3075 4750 3515 4442 
Q 3956 4134 3956 3541 
Q 3956 3144 3739 2878 
Q 3522 2613 3097 2484 
Q 3572 2353 3814 2058 
Q 4056 1763 4056 1313 
Q 4056 619 3595 264 
Q 3134 -91 2228 -91 
Q 1319 -91 855 264 
Q 391 619 391 1313 
Q 391 1763 633 2058 
Q 875 2353 1350 2484 
z
M 1631 3419 
Q 1631 3141 1786 2991 
Q 1941 2841 2228 2841 
Q 2509 2841 2662 2991 
Q 2816 3141 2816 3419 
Q 2816 3697 2662 3845 
Q 2509 3994 2228 3994 
Q 1941 3994 1786 3844 
Q 1631 3694 1631 3419 
z
" transform="scale(0.015625)"/>
     </defs>
     <use xlink:href="#DejaVuSans-Bold-b"/>
     <use xlink:href="#DejaVuSans-Bold-1b" transform="translate(45.703125 0)"/>
     <use xlink:href="#DejaVuSans-Bold-3" transform="translate(115.28125 0)"/>
     <use xlink:href="#DejaVuSans-Bold-13ab" transform="translate(150.09375 0)"/>
     <use xlink:href="#DejaVuSans-Bold-51" transform="translate(224.21875 0)"/>
     <use xlink:href="#DejaVuSans-Bold-47" transform="translate(295.40625 0)"/>
     <use xlink:href="#DejaVuSans-Bold-4c" transform="translate(366.984375 0)"/>
     <use xlink:href="#DejaVuSans-Bold-51" transform="translate(401.265625 0)"/>
     <use xlink:href="#DejaVuSans-Bold-4a" transform="translate(472.453125 0)"/>
     <use xlink:href="#DejaVuSans-Bold-56" transform="translate(544.03125 0)"/>
     <use xlink:href="#DejaVuSans-Bold-c" transform="translate(603.546875 0)"/>
    </g>
   </g>
   <g id="text_21">
    <!-- Terra XHigh -->
    <g transform="translate(369.959688 230.295352) scale(0.09 -0.09)">
     <defs>
      <path id="DejaVuSans-Bold-37" d="M 31 4666 
L 4331 4666 
L 4331 3756 
L 2784 3756 
L 2784 0 
L 1581 0 
L 1581 3756 
L 31 3756 
L 31 4666 
z
" transform="scale(0.015625)"/>
      <path id="DejaVuSans-Bold-55" d="M 3138 2547 
Q 2991 2616 2845 2648 
Q 2700 2681 2553 2681 
Q 2122 2681 1889 2404 
Q 1656 2128 1656 1613 
L 1656 0 
L 538 0 
L 538 3500 
L 1656 3500 
L 1656 2925 
Q 1872 3269 2151 3426 
Q 2431 3584 2822 3584 
Q 2878 3584 2943 3579 
Q 3009 3575 3134 3559 
L 3138 2547 
z
" transform="scale(0.015625)"/>
     </defs>
     <use xlink:href="#DejaVuSans-Bold-37"/>
     <use xlink:href="#DejaVuSans-Bold-48" transform="translate(54.9375 0)"/>
     <use xlink:href="#DejaVuSans-Bold-55" transform="translate(122.765625 0)"/>
     <use xlink:href="#DejaVuSans-Bold-55" transform="translate(172.078125 0)"/>
     <use xlink:href="#DejaVuSans-Bold-44" transform="translate(221.390625 0)"/>
     <use xlink:href="#DejaVuSans-Bold-3" transform="translate(288.875 0)"/>
     <use xlink:href="#DejaVuSans-Bold-3b" transform="translate(323.6875 0)"/>
     <use xlink:href="#DejaVuSans-Bold-2b" transform="translate(400.78125 0)"/>
     <use xlink:href="#DejaVuSans-Bold-4c" transform="translate(484.46875 0)"/>
     <use xlink:href="#DejaVuSans-Bold-4a" transform="translate(518.75 0)"/>
     <use xlink:href="#DejaVuSans-Bold-4b" transform="translate(590.328125 0)"/>
    </g>
    <!-- (7 findings) -->
    <g transform="translate(369.959688 241.097812) scale(0.09 -0.09)">
     <defs>
      <path id="DejaVuSans-Bold-1a" d="M 428 4666 
L 3944 4666 
L 3944 3988 
L 2125 0 
L 953 0 
L 2675 3781 
L 428 3781 
L 428 4666 
z
" transform="scale(0.015625)"/>
     </defs>
     <use xlink:href="#DejaVuSans-Bold-b"/>
     <use xlink:href="#DejaVuSans-Bold-1a" transform="translate(45.703125 0)"/>
     <use xlink:href="#DejaVuSans-Bold-3" transform="translate(115.28125 0)"/>
     <use xlink:href="#DejaVuSans-Bold-13ab" transform="translate(150.09375 0)"/>
     <use xlink:href="#DejaVuSans-Bold-51" transform="translate(224.21875 0)"/>
     <use xlink:href="#DejaVuSans-Bold-47" transform="translate(295.40625 0)"/>
     <use xlink:href="#DejaVuSans-Bold-4c" transform="translate(366.984375 0)"/>
     <use xlink:href="#DejaVuSans-Bold-51" transform="translate(401.265625 0)"/>
     <use xlink:href="#DejaVuSans-Bold-4a" transform="translate(472.453125 0)"/>
     <use xlink:href="#DejaVuSans-Bold-56" transform="translate(544.03125 0)"/>
     <use xlink:href="#DejaVuSans-Bold-c" transform="translate(603.546875 0)"/>
    </g>
   </g>
   <g id="text_22">
    <!-- 5.5 High -->
    <g transform="translate(317.489688 397.527352) scale(0.09 -0.09)">
     <use xlink:href="#DejaVuSans-Bold-18"/>
     <use xlink:href="#DejaVuSans-Bold-11" transform="translate(69.578125 0)"/>
     <use xlink:href="#DejaVuSans-Bold-18" transform="translate(107.5625 0)"/>
     <use xlink:href="#DejaVuSans-Bold-3" transform="translate(177.140625 0)"/>
     <use xlink:href="#DejaVuSans-Bold-2b" transform="translate(211.953125 0)"/>
     <use xlink:href="#DejaVuSans-Bold-4c" transform="translate(295.640625 0)"/>
     <use xlink:href="#DejaVuSans-Bold-4a" transform="translate(329.921875 0)"/>
     <use xlink:href="#DejaVuSans-Bold-4b" transform="translate(401.5 0)"/>
    </g>
    <!-- (7 findings) -->
    <g transform="translate(317.489688 408.329812) scale(0.09 -0.09)">
     <use xlink:href="#DejaVuSans-Bold-b"/>
     <use xlink:href="#DejaVuSans-Bold-1a" transform="translate(45.703125 0)"/>
     <use xlink:href="#DejaVuSans-Bold-3" transform="translate(115.28125 0)"/>
     <use xlink:href="#DejaVuSans-Bold-13ab" transform="translate(150.09375 0)"/>
     <use xlink:href="#DejaVuSans-Bold-51" transform="translate(224.21875 0)"/>
     <use xlink:href="#DejaVuSans-Bold-47" transform="translate(295.40625 0)"/>
     <use xlink:href="#DejaVuSans-Bold-4c" transform="translate(366.984375 0)"/>
     <use xlink:href="#DejaVuSans-Bold-51" transform="translate(401.265625 0)"/>
     <use xlink:href="#DejaVuSans-Bold-4a" transform="translate(472.453125 0)"/>
     <use xlink:href="#DejaVuSans-Bold-56" transform="translate(544.03125 0)"/>
     <use xlink:href="#DejaVuSans-Bold-c" transform="translate(603.546875 0)"/>
    </g>
   </g>
   <g id="text_23">
    <!-- GLM Max -->
    <g transform="translate(246.209688 330.999352) scale(0.09 -0.09)">
     <defs>
      <path id="DejaVuSans-Bold-2a" d="M 4781 347 
Q 4331 128 3847 18 
Q 3363 -91 2847 -91 
Q 1681 -91 1000 561 
Q 319 1213 319 2328 
Q 319 3456 1012 4103 
Q 1706 4750 2913 4750 
Q 3378 4750 3804 4662 
Q 4231 4575 4609 4403 
L 4609 3438 
Q 4219 3659 3833 3768 
Q 3447 3878 3059 3878 
Q 2341 3878 1952 3476 
Q 1563 3075 1563 2328 
Q 1563 1588 1938 1184 
Q 2313 781 3003 781 
Q 3191 781 3352 804 
Q 3513 828 3641 878 
L 3641 1784 
L 2906 1784 
L 2906 2591 
L 4781 2591 
L 4781 347 
z
" transform="scale(0.015625)"/>
     </defs>
     <use xlink:href="#DejaVuSans-Bold-2a"/>
     <use xlink:href="#DejaVuSans-Bold-2f" transform="translate(82.078125 0)"/>
     <use xlink:href="#DejaVuSans-Bold-30" transform="translate(145.796875 0)"/>
     <use xlink:href="#DejaVuSans-Bold-3" transform="translate(245.3125 0)"/>
     <use xlink:href="#DejaVuSans-Bold-30" transform="translate(280.125 0)"/>
     <use xlink:href="#DejaVuSans-Bold-44" transform="translate(379.640625 0)"/>
     <use xlink:href="#DejaVuSans-Bold-5b" transform="translate(447.125 0)"/>
    </g>
    <!-- (16 findings) -->
    <g transform="translate(246.209688 341.801812) scale(0.09 -0.09)">
     <defs>
      <path id="DejaVuSans-Bold-19" d="M 2316 2303 
Q 2000 2303 1842 2098 
Q 1684 1894 1684 1484 
Q 1684 1075 1842 870 
Q 2000 666 2316 666 
Q 2634 666 2792 870 
Q 2950 1075 2950 1484 
Q 2950 1894 2792 2098 
Q 2634 2303 2316 2303 
z
M 3803 4544 
L 3803 3681 
Q 3506 3822 3243 3889 
Q 2981 3956 2731 3956 
Q 2194 3956 1894 3657 
Q 1594 3359 1544 2772 
Q 1750 2925 1990 3001 
Q 2231 3078 2516 3078 
Q 3231 3078 3670 2659 
Q 4109 2241 4109 1563 
Q 4109 813 3618 361 
Q 3128 -91 2303 -91 
Q 1394 -91 895 523 
Q 397 1138 397 2266 
Q 397 3422 980 4083 
Q 1563 4744 2578 4744 
Q 2900 4744 3203 4694 
Q 3506 4644 3803 4544 
z
" transform="scale(0.015625)"/>
     </defs>
     <use xlink:href="#DejaVuSans-Bold-b"/>
     <use xlink:href="#DejaVuSans-Bold-14" transform="translate(45.703125 0)"/>
     <use xlink:href="#DejaVuSans-Bold-19" transform="translate(115.28125 0)"/>
     <use xlink:href="#DejaVuSans-Bold-3" transform="translate(184.859375 0)"/>
     <use xlink:href="#DejaVuSans-Bold-13ab" transform="translate(219.671875 0)"/>
     <use xlink:href="#DejaVuSans-Bold-51" transform="translate(293.796875 0)"/>
     <use xlink:href="#DejaVuSans-Bold-47" transform="translate(364.984375 0)"/>
     <use xlink:href="#DejaVuSans-Bold-4c" transform="translate(436.5625 0)"/>
     <use xlink:href="#DejaVuSans-Bold-51" transform="translate(470.84375 0)"/>
     <use xlink:href="#DejaVuSans-Bold-4a" transform="translate(542.03125 0)"/>
     <use xlink:href="#DejaVuSans-Bold-56" transform="translate(613.609375 0)"/>
     <use xlink:href="#DejaVuSans-Bold-c" transform="translate(673.125 0)"/>
    </g>
   </g>
   <g id="text_24">
    <!-- Best value -->
    <g style="fill: #666666" transform="translate(86.699688 57.328544) scale(0.08 -0.08)">
     <defs>
      <path id="DejaVuSans-Oblique-25" d="M 1081 4666 
L 2694 4666 
Q 3350 4666 3675 4422 
Q 4000 4178 4000 3688 
Q 4000 3238 3720 2911 
Q 3441 2584 2988 2516 
Q 3375 2428 3569 2181 
Q 3763 1934 3763 1522 
Q 3763 819 3242 409 
Q 2722 0 1819 0 
L 172 0 
L 1081 4666 
z
M 1234 2228 
L 903 519 
L 1919 519 
Q 2491 519 2800 781 
Q 3109 1044 3109 1522 
Q 3109 1891 2904 2059 
Q 2700 2228 2247 2228 
L 1234 2228 
z
M 1606 4147 
L 1331 2741 
L 2272 2741 
Q 2775 2741 3058 2959 
Q 3341 3178 3341 3566 
Q 3341 3869 3150 4008 
Q 2959 4147 2541 4147 
L 1606 4147 
z
" transform="scale(0.015625)"/>
      <path id="DejaVuSans-Oblique-48" d="M 3078 2063 
Q 3088 2113 3092 2166 
Q 3097 2219 3097 2272 
Q 3097 2653 2873 2875 
Q 2650 3097 2266 3097 
Q 1838 3097 1509 2826 
Q 1181 2556 1013 2059 
L 3078 2063 
z
M 3578 1613 
L 903 1613 
Q 884 1494 878 1425 
Q 872 1356 872 1306 
Q 872 872 1139 634 
Q 1406 397 1894 397 
Q 2269 397 2603 481 
Q 2938 566 3225 728 
L 3116 159 
Q 2806 34 2476 -28 
Q 2147 -91 1806 -91 
Q 1078 -91 686 257 
Q 294 606 294 1247 
Q 294 1794 489 2264 
Q 684 2734 1063 3103 
Q 1306 3334 1642 3459 
Q 1978 3584 2356 3584 
Q 2950 3584 3301 3228 
Q 3653 2872 3653 2272 
Q 3653 2128 3634 1964 
Q 3616 1800 3578 1613 
z
" transform="scale(0.015625)"/>
      <path id="DejaVuSans-Oblique-56" d="M 3200 3397 
L 3091 2853 
Q 2863 2978 2609 3040 
Q 2356 3103 2088 3103 
Q 1634 3103 1373 2948 
Q 1113 2794 1113 2528 
Q 1113 2219 1719 2053 
Q 1766 2041 1788 2034 
L 1972 1978 
Q 2547 1819 2739 1644 
Q 2931 1469 2931 1166 
Q 2931 609 2489 259 
Q 2047 -91 1331 -91 
Q 1053 -91 747 -37 
Q 441 16 72 128 
L 184 722 
Q 500 559 806 475 
Q 1113 391 1394 391 
Q 1816 391 2080 572 
Q 2344 753 2344 1031 
Q 2344 1331 1650 1516 
L 1591 1531 
L 1394 1581 
Q 956 1697 753 1886 
Q 550 2075 550 2369 
Q 550 2928 970 3256 
Q 1391 3584 2113 3584 
Q 2397 3584 2667 3537 
Q 2938 3491 3200 3397 
z
" transform="scale(0.015625)"/>
      <path id="DejaVuSans-Oblique-57" d="M 2706 3500 
L 2619 3053 
L 1472 3053 
L 1100 1153 
Q 1081 1047 1072 975 
Q 1063 903 1063 863 
Q 1063 663 1183 572 
Q 1303 481 1569 481 
L 2150 481 
L 2053 0 
L 1503 0 
Q 991 0 739 200 
Q 488 400 488 806 
Q 488 878 497 964 
Q 506 1050 525 1153 
L 897 3053 
L 409 3053 
L 500 3500 
L 978 3500 
L 1172 4494 
L 1747 4494 
L 1556 3500 
L 2706 3500 
z
" transform="scale(0.015625)"/>
      <path id="DejaVuSans-Oblique-3" transform="scale(0.015625)"/>
      <path id="DejaVuSans-Oblique-59" d="M 459 3500 
L 1069 3500 
L 1581 525 
L 3256 3500 
L 3866 3500 
L 1875 0 
L 1100 0 
L 459 3500 
z
" transform="scale(0.015625)"/>
      <path id="DejaVuSans-Oblique-44" d="M 3438 1997 
L 3047 0 
L 2472 0 
L 2578 531 
Q 2325 219 2001 64 
Q 1678 -91 1281 -91 
Q 834 -91 548 182 
Q 263 456 263 884 
Q 263 1497 752 1853 
Q 1241 2209 2100 2209 
L 2900 2209 
L 2931 2363 
Q 2938 2388 2941 2417 
Q 2944 2447 2944 2509 
Q 2944 2788 2717 2942 
Q 2491 3097 2081 3097 
Q 1800 3097 1504 3025 
Q 1209 2953 897 2809 
L 997 3341 
Q 1322 3463 1633 3523 
Q 1944 3584 2234 3584 
Q 2853 3584 3176 3315 
Q 3500 3047 3500 2534 
Q 3500 2431 3484 2292 
Q 3469 2153 3438 1997 
z
M 2816 1759 
L 2241 1759 
Q 1534 1759 1195 1570 
Q 856 1381 856 984 
Q 856 709 1029 553 
Q 1203 397 1509 397 
Q 1978 397 2328 733 
Q 2678 1069 2791 1631 
L 2816 1759 
z
" transform="scale(0.015625)"/>
      <path id="DejaVuSans-Oblique-4f" d="M 1172 4863 
L 1747 4863 
L 800 0 
L 225 0 
L 1172 4863 
z
" transform="scale(0.015625)"/>
      <path id="DejaVuSans-Oblique-58" d="M 428 1388 
L 838 3500 
L 1416 3500 
L 1006 1409 
Q 975 1256 961 1147 
Q 947 1038 947 966 
Q 947 700 1109 554 
Q 1272 409 1569 409 
Q 2031 409 2368 721 
Q 2706 1034 2809 1563 
L 3194 3500 
L 3769 3500 
L 3091 0 
L 2516 0 
L 2631 550 
Q 2388 244 2052 76 
Q 1716 -91 1338 -91 
Q 878 -91 622 161 
Q 366 413 366 863 
Q 366 956 381 1097 
Q 397 1238 428 1388 
z
" transform="scale(0.015625)"/>
     </defs>
     <use xlink:href="#DejaVuSans-Oblique-25"/>
     <use xlink:href="#DejaVuSans-Oblique-48" transform="translate(68.609375 0)"/>
     <use xlink:href="#DejaVuSans-Oblique-56" transform="translate(130.140625 0)"/>
     <use xlink:href="#DejaVuSans-Oblique-57" transform="translate(182.234375 0)"/>
     <use xlink:href="#DejaVuSans-Oblique-3" transform="translate(221.4375 0)"/>
     <use xlink:href="#DejaVuSans-Oblique-59" transform="translate(253.21875 0)"/>
     <use xlink:href="#DejaVuSans-Oblique-44" transform="translate(312.40625 0)"/>
     <use xlink:href="#DejaVuSans-Oblique-4f" transform="translate(373.6875 0)"/>
     <use xlink:href="#DejaVuSans-Oblique-58" transform="translate(401.46875 0)"/>
     <use xlink:href="#DejaVuSans-Oblique-48" transform="translate(464.84375 0)"/>
    </g>
    <!-- (high score, low cost) -->
    <g style="fill: #666666" transform="translate(86.699688 66.930731) scale(0.08 -0.08)">
     <defs>
      <path id="DejaVuSans-Oblique-b" d="M 2731 4856 
Q 1903 3822 1495 2892 
Q 1088 1963 1088 1100 
Q 1088 606 1206 120 
Q 1325 -366 1563 -844 
L 1063 -844 
Q 775 -306 634 201 
Q 494 709 494 1197 
Q 494 2125 923 3036 
Q 1353 3947 2222 4856 
L 2731 4856 
z
" transform="scale(0.015625)"/>
      <path id="DejaVuSans-Oblique-4b" d="M 3566 2113 
L 3156 0 
L 2578 0 
L 2988 2091 
Q 3016 2238 3031 2350 
Q 3047 2463 3047 2528 
Q 3047 2791 2881 2937 
Q 2716 3084 2419 3084 
Q 1956 3084 1617 2771 
Q 1278 2459 1178 1941 
L 800 0 
L 225 0 
L 1172 4863 
L 1747 4863 
L 1375 2950 
Q 1594 3244 1934 3414 
Q 2275 3584 2650 3584 
Q 3113 3584 3367 3334 
Q 3622 3084 3622 2631 
Q 3622 2519 3608 2391 
Q 3594 2263 3566 2113 
z
" transform="scale(0.015625)"/>
      <path id="DejaVuSans-Oblique-4c" d="M 1172 4863 
L 1747 4863 
L 1606 4134 
L 1031 4134 
L 1172 4863 
z
M 909 3500 
L 1484 3500 
L 800 0 
L 225 0 
L 909 3500 
z
" transform="scale(0.015625)"/>
      <path id="DejaVuSans-Oblique-4a" d="M 3816 3500 
L 3219 434 
Q 3047 -456 2561 -893 
Q 2075 -1331 1253 -1331 
Q 950 -1331 690 -1286 
Q 431 -1241 206 -1147 
L 313 -588 
Q 525 -725 762 -790 
Q 1000 -856 1269 -856 
Q 1816 -856 2167 -557 
Q 2519 -259 2631 300 
L 2681 563 
Q 2441 288 2122 144 
Q 1803 0 1434 0 
Q 903 0 598 351 
Q 294 703 294 1319 
Q 294 1803 478 2267 
Q 663 2731 997 3091 
Q 1219 3328 1514 3456 
Q 1809 3584 2131 3584 
Q 2484 3584 2746 3420 
Q 3009 3256 3138 2956 
L 3238 3500 
L 3816 3500 
z
M 2950 2216 
Q 2950 2641 2750 2872 
Q 2550 3103 2181 3103 
Q 1953 3103 1747 3012 
Q 1541 2922 1394 2759 
Q 1156 2491 1023 2127 
Q 891 1763 891 1375 
Q 891 944 1092 712 
Q 1294 481 1672 481 
Q 2219 481 2584 976 
Q 2950 1472 2950 2216 
z
" transform="scale(0.015625)"/>
      <path id="DejaVuSans-Oblique-46" d="M 3431 3366 
L 3316 2797 
Q 3109 2947 2876 3022 
Q 2644 3097 2394 3097 
Q 2119 3097 1870 3000 
Q 1622 2903 1453 2725 
Q 1184 2453 1037 2087 
Q 891 1722 891 1331 
Q 891 859 1127 628 
Q 1363 397 1844 397 
Q 2081 397 2348 469 
Q 2616 541 2906 684 
L 2797 116 
Q 2547 13 2283 -39 
Q 2019 -91 1741 -91 
Q 1044 -91 669 257 
Q 294 606 294 1253 
Q 294 1797 489 2255 
Q 684 2713 1069 3078 
Q 1331 3328 1684 3456 
Q 2038 3584 2456 3584 
Q 2700 3584 2940 3529 
Q 3181 3475 3431 3366 
z
" transform="scale(0.015625)"/>
      <path id="DejaVuSans-Oblique-52" d="M 1625 -91 
Q 1009 -91 651 289 
Q 294 669 294 1325 
Q 294 1706 417 2101 
Q 541 2497 738 2766 
Q 1047 3184 1428 3384 
Q 1809 3584 2291 3584 
Q 2888 3584 3255 3212 
Q 3622 2841 3622 2241 
Q 3622 1825 3500 1412 
Q 3378 1000 3181 728 
Q 2875 309 2494 109 
Q 2113 -91 1625 -91 
z
M 891 1344 
Q 891 869 1089 633 
Q 1288 397 1691 397 
Q 2269 397 2648 901 
Q 3028 1406 3028 2181 
Q 3028 2634 2825 2865 
Q 2622 3097 2228 3097 
Q 1903 3097 1650 2945 
Q 1397 2794 1197 2484 
Q 1050 2253 970 1956 
Q 891 1659 891 1344 
z
" transform="scale(0.015625)"/>
      <path id="DejaVuSans-Oblique-55" d="M 2853 2969 
Q 2766 3016 2653 3041 
Q 2541 3066 2413 3066 
Q 1953 3066 1609 2717 
Q 1266 2369 1153 1784 
L 800 0 
L 225 0 
L 909 3500 
L 1484 3500 
L 1375 2956 
Q 1603 3259 1920 3421 
Q 2238 3584 2597 3584 
Q 2691 3584 2781 3573 
Q 2872 3563 2963 3538 
L 2853 2969 
z
" transform="scale(0.015625)"/>
      <path id="DejaVuSans-Oblique-f" d="M 575 794 
L 1234 794 
L 1131 256 
L 422 -744 
L 19 -744 
L 469 256 
L 575 794 
z
" transform="scale(0.015625)"/>
      <path id="DejaVuSans-Oblique-5a" d="M 544 3500 
L 1113 3500 
L 1259 684 
L 2566 3500 
L 3231 3500 
L 3425 684 
L 4666 3500 
L 5241 3500 
L 3641 0 
L 2969 0 
L 2797 2900 
L 1459 0 
L 781 0 
L 544 3500 
z
" transform="scale(0.015625)"/>
      <path id="DejaVuSans-Oblique-c" d="M -397 -844 
Q 434 191 840 1120 
Q 1247 2050 1247 2913 
Q 1247 3406 1130 3892 
Q 1013 4378 775 4856 
L 1275 4856 
Q 1563 4316 1703 3812 
Q 1844 3309 1844 2822 
Q 1844 1891 1411 973 
Q 978 56 116 -844 
L -397 -844 
z
" transform="scale(0.015625)"/>
     </defs>
     <use xlink:href="#DejaVuSans-Oblique-b"/>
     <use xlink:href="#DejaVuSans-Oblique-4b" transform="translate(39.015625 0)"/>
     <use xlink:href="#DejaVuSans-Oblique-4c" transform="translate(102.390625 0)"/>
     <use xlink:href="#DejaVuSans-Oblique-4a" transform="translate(130.171875 0)"/>
     <use xlink:href="#DejaVuSans-Oblique-4b" transform="translate(193.65625 0)"/>
     <use xlink:href="#DejaVuSans-Oblique-3" transform="translate(257.03125 0)"/>
     <use xlink:href="#DejaVuSans-Oblique-56" transform="translate(288.8125 0)"/>
     <use xlink:href="#DejaVuSans-Oblique-46" transform="translate(340.90625 0)"/>
     <use xlink:href="#DejaVuSans-Oblique-52" transform="translate(395.890625 0)"/>
     <use xlink:href="#DejaVuSans-Oblique-55" transform="translate(457.078125 0)"/>
     <use xlink:href="#DejaVuSans-Oblique-48" transform="translate(498.1875 0)"/>
     <use xlink:href="#DejaVuSans-Oblique-f" transform="translate(559.71875 0)"/>
     <use xlink:href="#DejaVuSans-Oblique-3" transform="translate(591.5 0)"/>
     <use xlink:href="#DejaVuSans-Oblique-4f" transform="translate(623.28125 0)"/>
     <use xlink:href="#DejaVuSans-Oblique-52" transform="translate(651.0625 0)"/>
     <use xlink:href="#DejaVuSans-Oblique-5a" transform="translate(712.25 0)"/>
     <use xlink:href="#DejaVuSans-Oblique-3" transform="translate(794.03125 0)"/>
     <use xlink:href="#DejaVuSans-Oblique-46" transform="translate(825.8125 0)"/>
     <use xlink:href="#DejaVuSans-Oblique-52" transform="translate(880.796875 0)"/>
     <use xlink:href="#DejaVuSans-Oblique-56" transform="translate(941.984375 0)"/>
     <use xlink:href="#DejaVuSans-Oblique-57" transform="translate(994.078125 0)"/>
     <use xlink:href="#DejaVuSans-Oblique-c" transform="translate(1033.28125 0)"/>
    </g>
   </g>
   <g id="text_25">
    <!-- Cost vs. Performance (bubble size = findings count) -->
    <g transform="translate(138.832344 17.837812) scale(0.14 -0.14)">
     <defs>
      <path id="DejaVuSans-Bold-26" d="M 4288 256 
Q 3956 84 3597 -3 
Q 3238 -91 2847 -91 
Q 1681 -91 1000 561 
Q 319 1213 319 2328 
Q 319 3447 1000 4098 
Q 1681 4750 2847 4750 
Q 3238 4750 3597 4662 
Q 3956 4575 4288 4403 
L 4288 3438 
Q 3953 3666 3628 3772 
Q 3303 3878 2944 3878 
Q 2300 3878 1931 3465 
Q 1563 3053 1563 2328 
Q 1563 1606 1931 1193 
Q 2300 781 2944 781 
Q 3303 781 3628 887 
Q 3953 994 4288 1222 
L 4288 256 
z
" transform="scale(0.015625)"/>
      <path id="DejaVuSans-Bold-57" d="M 1759 4494 
L 1759 3500 
L 2913 3500 
L 2913 2700 
L 1759 2700 
L 1759 1216 
Q 1759 972 1856 886 
Q 1953 800 2241 800 
L 2816 800 
L 2816 0 
L 1856 0 
Q 1194 0 917 276 
Q 641 553 641 1216 
L 641 2700 
L 84 2700 
L 84 3500 
L 641 3500 
L 641 4494 
L 1759 4494 
z
" transform="scale(0.015625)"/>
      <path id="DejaVuSans-Bold-59" d="M 97 3500 
L 1216 3500 
L 2088 1081 
L 2956 3500 
L 4078 3500 
L 2700 0 
L 1472 0 
L 97 3500 
z
" transform="scale(0.015625)"/>
      <path id="DejaVuSans-Bold-33" d="M 588 4666 
L 2584 4666 
Q 3475 4666 3951 4270 
Q 4428 3875 4428 3144 
Q 4428 2409 3951 2014 
Q 3475 1619 2584 1619 
L 1791 1619 
L 1791 0 
L 588 0 
L 588 4666 
z
M 1791 3794 
L 1791 2491 
L 2456 2491 
Q 2806 2491 2997 2661 
Q 3188 2831 3188 3144 
Q 3188 3456 2997 3625 
Q 2806 3794 2456 3794 
L 1791 3794 
z
" transform="scale(0.015625)"/>
      <path id="DejaVuSans-Bold-49" d="M 2841 4863 
L 2841 4128 
L 2222 4128 
Q 1984 4128 1890 4042 
Q 1797 3956 1797 3744 
L 1797 3500 
L 2753 3500 
L 2753 2700 
L 1797 2700 
L 1797 0 
L 678 0 
L 678 2700 
L 122 2700 
L 122 3500 
L 678 3500 
L 678 3744 
Q 678 4316 997 4589 
Q 1316 4863 1984 4863 
L 2841 4863 
z
" transform="scale(0.015625)"/>
      <path id="DejaVuSans-Bold-46" d="M 3366 3391 
L 3366 2478 
Q 3138 2634 2908 2709 
Q 2678 2784 2431 2784 
Q 1963 2784 1702 2511 
Q 1441 2238 1441 1747 
Q 1441 1256 1702 982 
Q 1963 709 2431 709 
Q 2694 709 2930 787 
Q 3166 866 3366 1019 
L 3366 103 
Q 3103 6 2833 -42 
Q 2563 -91 2291 -91 
Q 1344 -91 809 395 
Q 275 881 275 1747 
Q 275 2613 809 3098 
Q 1344 3584 2291 3584 
Q 2566 3584 2833 3536 
Q 3100 3488 3366 3391 
z
" transform="scale(0.015625)"/>
      <path id="DejaVuSans-Bold-45" d="M 2400 722 
Q 2759 722 2948 984 
Q 3138 1247 3138 1747 
Q 3138 2247 2948 2509 
Q 2759 2772 2400 2772 
Q 2041 2772 1848 2508 
Q 1656 2244 1656 1747 
Q 1656 1250 1848 986 
Q 2041 722 2400 722 
z
M 1656 2988 
Q 1888 3294 2169 3439 
Q 2450 3584 2816 3584 
Q 3463 3584 3878 3070 
Q 4294 2556 4294 1747 
Q 4294 938 3878 423 
Q 3463 -91 2816 -91 
Q 2450 -91 2169 54 
Q 1888 200 1656 506 
L 1656 0 
L 538 0 
L 538 4863 
L 1656 4863 
L 1656 2988 
z
" transform="scale(0.015625)"/>
      <path id="DejaVuSans-Bold-5d" d="M 366 3500 
L 3419 3500 
L 3419 2719 
L 1575 800 
L 3419 800 
L 3419 0 
L 288 0 
L 288 781 
L 2131 2700 
L 366 2700 
L 366 3500 
z
" transform="scale(0.015625)"/>
      <path id="DejaVuSans-Bold-20" d="M 678 3084 
L 4684 3084 
L 4684 2350 
L 678 2350 
L 678 3084 
z
M 678 1663 
L 4684 1663 
L 4684 922 
L 678 922 
L 678 1663 
z
" transform="scale(0.015625)"/>
     </defs>
     <use xlink:href="#DejaVuSans-Bold-26"/>
     <use xlink:href="#DejaVuSans-Bold-52" transform="translate(73.390625 0)"/>
     <use xlink:href="#DejaVuSans-Bold-56" transform="translate(142.09375 0)"/>
     <use xlink:href="#DejaVuSans-Bold-57" transform="translate(201.609375 0)"/>
     <use xlink:href="#DejaVuSans-Bold-3" transform="translate(249.40625 0)"/>
     <use xlink:href="#DejaVuSans-Bold-59" transform="translate(284.21875 0)"/>
     <use xlink:href="#DejaVuSans-Bold-56" transform="translate(349.40625 0)"/>
     <use xlink:href="#DejaVuSans-Bold-11" transform="translate(408.921875 0)"/>
     <use xlink:href="#DejaVuSans-Bold-3" transform="translate(446.90625 0)"/>
     <use xlink:href="#DejaVuSans-Bold-33" transform="translate(481.71875 0)"/>
     <use xlink:href="#DejaVuSans-Bold-48" transform="translate(555.015625 0)"/>
     <use xlink:href="#DejaVuSans-Bold-55" transform="translate(622.84375 0)"/>
     <use xlink:href="#DejaVuSans-Bold-49" transform="translate(672.15625 0)"/>
     <use xlink:href="#DejaVuSans-Bold-52" transform="translate(715.65625 0)"/>
     <use xlink:href="#DejaVuSans-Bold-55" transform="translate(784.359375 0)"/>
     <use xlink:href="#DejaVuSans-Bold-50" transform="translate(833.671875 0)"/>
     <use xlink:href="#DejaVuSans-Bold-44" transform="translate(937.875 0)"/>
     <use xlink:href="#DejaVuSans-Bold-51" transform="translate(1005.359375 0)"/>
     <use xlink:href="#DejaVuSans-Bold-46" transform="translate(1076.546875 0)"/>
     <use xlink:href="#DejaVuSans-Bold-48" transform="translate(1135.828125 0)"/>
     <use xlink:href="#DejaVuSans-Bold-3" transform="translate(1203.65625 0)"/>
     <use xlink:href="#DejaVuSans-Bold-b" transform="translate(1238.46875 0)"/>
     <use xlink:href="#DejaVuSans-Bold-45" transform="translate(1284.171875 0)"/>
     <use xlink:href="#DejaVuSans-Bold-58" transform="translate(1355.75 0)"/>
     <use xlink:href="#DejaVuSans-Bold-45" transform="translate(1426.9375 0)"/>
     <use xlink:href="#DejaVuSans-Bold-45" transform="translate(1498.515625 0)"/>
     <use xlink:href="#DejaVuSans-Bold-4f" transform="translate(1570.09375 0)"/>
     <use xlink:href="#DejaVuSans-Bold-48" transform="translate(1604.375 0)"/>
     <use xlink:href="#DejaVuSans-Bold-3" transform="translate(1672.203125 0)"/>
     <use xlink:href="#DejaVuSans-Bold-56" transform="translate(1707.015625 0)"/>
     <use xlink:href="#DejaVuSans-Bold-4c" transform="translate(1766.53125 0)"/>
     <use xlink:href="#DejaVuSans-Bold-5d" transform="translate(1800.8125 0)"/>
     <use xlink:href="#DejaVuSans-Bold-48" transform="translate(1859.015625 0)"/>
     <use xlink:href="#DejaVuSans-Bold-3" transform="translate(1926.84375 0)"/>
     <use xlink:href="#DejaVuSans-Bold-20" transform="translate(1961.65625 0)"/>
     <use xlink:href="#DejaVuSans-Bold-3" transform="translate(2045.453125 0)"/>
     <use xlink:href="#DejaVuSans-Bold-13ab" transform="translate(2080.265625 0)"/>
     <use xlink:href="#DejaVuSans-Bold-51" transform="translate(2154.390625 0)"/>
     <use xlink:href="#DejaVuSans-Bold-47" transform="translate(2225.578125 0)"/>
     <use xlink:href="#DejaVuSans-Bold-4c" transform="translate(2297.15625 0)"/>
     <use xlink:href="#DejaVuSans-Bold-51" transform="translate(2331.4375 0)"/>
     <use xlink:href="#DejaVuSans-Bold-4a" transform="translate(2402.625 0)"/>
     <use xlink:href="#DejaVuSans-Bold-56" transform="translate(2474.203125 0)"/>
     <use xlink:href="#DejaVuSans-Bold-3" transform="translate(2533.71875 0)"/>
     <use xlink:href="#DejaVuSans-Bold-46" transform="translate(2568.53125 0)"/>
     <use xlink:href="#DejaVuSans-Bold-52" transform="translate(2627.8125 0)"/>
     <use xlink:href="#DejaVuSans-Bold-58" transform="translate(2696.515625 0)"/>
     <use xlink:href="#DejaVuSans-Bold-51" transform="translate(2767.703125 0)"/>
     <use xlink:href="#DejaVuSans-Bold-57" transform="translate(2838.890625 0)"/>
     <use xlink:href="#DejaVuSans-Bold-c" transform="translate(2886.6875 0)"/>
    </g>
   </g>
   <g id="PathCollection_1">
    <defs>
     <path id="mb3f6199f4f" d="M 0 11.83216 
C 3.137925 11.83216 6.147752 10.585449 8.3666 8.3666 
C 10.585449 6.147752 11.83216 3.137925 11.83216 0 
C 11.83216 -3.137925 10.585449 -6.147752 8.3666 -8.3666 
C 6.147752 -10.585449 3.137925 -11.83216 0 -11.83216 
C -3.137925 -11.83216 -6.147752 -10.585449 -8.3666 -8.3666 
C -10.585449 -6.147752 -11.83216 -3.137925 -11.83216 0 
C -11.83216 3.137925 -10.585449 6.147752 -8.3666 8.3666 
C -6.147752 10.585449 -3.137925 11.83216 0 11.83216 
z
" style="stroke: #333333; stroke-width: 1.5"/>
    </defs>
    <g clip-path="url(#p510093f595)">
     <use xlink:href="#mb3f6199f4f" x="265.889688" y="139.153012" style="fill: #7c3aed; stroke: #333333; stroke-width: 1.5"/>
    </g>
   </g>
   <g id="PathCollection_2">
    <defs>
     <path id="m238516e843" d="M 0 10.488088 
C 2.781474 10.488088 5.4494 9.382997 7.416198 7.416198 
C 9.382997 5.4494 10.488088 2.781474 10.488088 0 
C 10.488088 -2.781474 9.382997 -5.4494 7.416198 -7.416198 
C 5.4494 -9.382997 2.781474 -10.488088 0 -10.488088 
C -2.781474 -10.488088 -5.4494 -9.382997 -7.416198 -7.416198 
C -9.382997 -5.4494 -10.488088 -2.781474 -10.488088 0 
C -10.488088 2.781474 -9.382997 5.4494 -7.416198 7.416198 
C -5.4494 9.382997 -2.781474 10.488088 0 10.488088 
z
" style="stroke: #333333; stroke-width: 1.5"/>
    </defs>
    <g clip-path="url(#p510093f595)">
     <use xlink:href="#m238516e843" x="559.919688" y="108.106612" style="fill: #2563eb; stroke: #333333; stroke-width: 1.5"/>
    </g>
   </g>
   <g id="PathCollection_3">
    <defs>
     <path id="m43f39e7866" d="M 0 11.401754 
C 3.023781 11.401754 5.924122 10.200393 8.062258 8.062258 
C 10.200393 5.924122 11.401754 3.023781 11.401754 0 
C 11.401754 -3.023781 10.200393 -5.924122 8.062258 -8.062258 
C 5.924122 -10.200393 3.023781 -11.401754 0 -11.401754 
C -3.023781 -11.401754 -5.924122 -10.200393 -8.062258 -8.062258 
C -10.200393 -5.924122 -11.401754 -3.023781 -11.401754 0 
C -11.401754 3.023781 -10.200393 5.924122 -8.062258 8.062258 
C -5.924122 10.200393 -3.023781 11.401754 0 11.401754 
z
" style="stroke: #333333; stroke-width: 1.5"/>
    </defs>
    <g clip-path="url(#p510093f595)">
     <use xlink:href="#m43f39e7866" x="194.609688" y="196.810612" style="fill: #6366f1; stroke: #333333; stroke-width: 1.5"/>
    </g>
   </g>
   <g id="PathCollection_4">
    <defs>
     <path id="m233712891e" d="M 0 10.954451 
C 2.905154 10.954451 5.691712 9.800221 7.745967 7.745967 
C 9.800221 5.691712 10.954451 2.905154 10.954451 0 
C 10.954451 -2.905154 9.800221 -5.691712 7.745967 -7.745967 
C 5.691712 -9.800221 2.905154 -10.954451 0 -10.954451 
C -2.905154 -10.954451 -5.691712 -9.800221 -7.745967 -7.745967 
C -9.800221 -5.691712 -10.954451 -2.905154 -10.954451 0 
C -10.954451 2.905154 -9.800221 5.691712 -7.745967 7.745967 
C -5.691712 9.800221 -2.905154 10.954451 0 10.954451 
z
" style="stroke: #333333; stroke-width: 1.5"/>
    </defs>
    <g clip-path="url(#p510093f595)">
     <use xlink:href="#m233712891e" x="574.769688" y="245.597812" style="fill: #d97706; stroke: #333333; stroke-width: 1.5"/>
    </g>
   </g>
   <g id="PathCollection_5">
    <defs>
     <path id="m58364a5081" d="M 0 9.486833 
C 2.515938 9.486833 4.929167 8.48724 6.708204 6.708204 
C 8.48724 4.929167 9.486833 2.515938 9.486833 0 
C 9.486833 -2.515938 8.48724 -4.929167 6.708204 -6.708204 
C 4.929167 -8.48724 2.515938 -9.486833 0 -9.486833 
C -2.515938 -9.486833 -4.929167 -8.48724 -6.708204 -6.708204 
C -8.48724 -4.929167 -9.486833 -2.515938 -9.486833 0 
C -9.486833 2.515938 -8.48724 4.929167 -6.708204 6.708204 
C -4.929167 8.48724 -2.515938 9.486833 0 9.486833 
z
" style="stroke: #333333; stroke-width: 1.5"/>
    </defs>
    <g clip-path="url(#p510093f595)">
     <use xlink:href="#m58364a5081" x="184.709688" y="210.116212" style="fill: #0891b2; stroke: #333333; stroke-width: 1.5"/>
    </g>
   </g>
   <g id="PathCollection_6">
    <defs>
     <path id="mc2f84a1135" d="M 0 8.944272 
C 2.372049 8.944272 4.647264 8.001847 6.324555 6.324555 
C 8.001847 4.647264 8.944272 2.372049 8.944272 0 
C 8.944272 -2.372049 8.001847 -4.647264 6.324555 -6.324555 
C 4.647264 -8.001847 2.372049 -8.944272 0 -8.944272 
C -2.372049 -8.944272 -4.647264 -8.001847 -6.324555 -6.324555 
C -8.001847 -4.647264 -8.944272 -2.372049 -8.944272 0 
C -8.944272 2.372049 -8.001847 4.647264 -6.324555 6.324555 
C -4.647264 8.001847 -2.372049 8.944272 0 8.944272 
z
" style="stroke: #333333; stroke-width: 1.5"/>
    </defs>
    <g clip-path="url(#p510093f595)">
     <use xlink:href="#mc2f84a1135" x="141.149688" y="272.209012" style="fill: #ec4899; stroke: #333333; stroke-width: 1.5"/>
    </g>
   </g>
   <g id="PathCollection_7">
    <defs>
     <path id="m033481ba5f" d="M 0 8.3666 
C 2.218848 8.3666 4.347117 7.485042 5.91608 5.91608 
C 7.485042 4.347117 8.3666 2.218848 8.3666 0 
C 8.3666 -2.218848 7.485042 -4.347117 5.91608 -5.91608 
C 4.347117 -7.485042 2.218848 -8.3666 0 -8.3666 
C -2.218848 -8.3666 -4.347117 -7.485042 -5.91608 -5.91608 
C -7.485042 -4.347117 -8.3666 -2.218848 -8.3666 0 
C -8.3666 2.218848 -7.485042 4.347117 -5.91608 5.91608 
C -4.347117 7.485042 -2.218848 8.3666 0 8.3666 
z
" style="stroke: #333333; stroke-width: 1.5"/>
    </defs>
    <g clip-path="url(#p510093f595)">
     <use xlink:href="#m033481ba5f" x="357.959688" y="245.597812" style="fill: #059669; stroke: #333333; stroke-width: 1.5"/>
    </g>
   </g>
   <g id="PathCollection_8">
    <defs>
     <path id="m6e3c9f74a5" d="M 0 8.3666 
C 2.218848 8.3666 4.347117 7.485042 5.91608 5.91608 
C 7.485042 4.347117 8.3666 2.218848 8.3666 0 
C 8.3666 -2.218848 7.485042 -4.347117 5.91608 -5.91608 
C 4.347117 -7.485042 2.218848 -8.3666 0 -8.3666 
C -2.218848 -8.3666 -4.347117 -7.485042 -5.91608 -5.91608 
C -7.485042 -4.347117 -8.3666 -2.218848 -8.3666 0 
C -8.3666 2.218848 -7.485042 4.347117 -5.91608 5.91608 
C -4.347117 7.485042 -2.218848 8.3666 0 8.3666 
z
" style="stroke: #333333; stroke-width: 1.5"/>
    </defs>
    <g clip-path="url(#p510093f595)">
     <use xlink:href="#m6e3c9f74a5" x="305.489688" y="400.829812" style="fill: #dc2626; stroke: #333333; stroke-width: 1.5"/>
    </g>
   </g>
   <g id="PathCollection_9">
    <defs>
     <path id="m69069f6391" d="M 0 12.649111 
C 3.354583 12.649111 6.572223 11.316321 8.944272 8.944272 
C 11.316321 6.572223 12.649111 3.354583 12.649111 0 
C 12.649111 -3.354583 11.316321 -6.572223 8.944272 -8.944272 
C 6.572223 -11.316321 3.354583 -12.649111 0 -12.649111 
C -3.354583 -12.649111 -6.572223 -11.316321 -8.944272 -8.944272 
C -11.316321 -6.572223 -12.649111 -3.354583 -12.649111 0 
C -12.649111 3.354583 -11.316321 6.572223 -8.944272 8.944272 
C -6.572223 11.316321 -3.354583 12.649111 0 12.649111 
z
" style="stroke: #333333; stroke-width: 1.5"/>
    </defs>
    <g clip-path="url(#p510093f595)">
     <use xlink:href="#m69069f6391" x="234.209688" y="334.301812" style="fill: #ea580c; stroke: #333333; stroke-width: 1.5"/>
    </g>
   </g>
   <g id="legend_1">
    <g id="line2d_26">
     <path d="M 503.879375 452.455469 
L 513.879375 452.455469 
L 523.879375 452.455469 
" style="fill: none; stroke-dasharray: 2.96,1.28; stroke-dashoffset: 0; stroke: #999999; stroke-width: 0.8"/>
    </g>
    <g id="text_26">
     <!-- Strong threshold (7.0) -->
     <g transform="translate(531.879375 455.955469) scale(0.1 -0.1)">
      <defs>
       <path id="DejaVuSans-11" d="M 684 794 
L 1344 794 
L 1344 0 
L 684 0 
L 684 794 
z
" transform="scale(0.015625)"/>
      </defs>
      <use xlink:href="#DejaVuSans-36"/>
      <use xlink:href="#DejaVuSans-57" transform="translate(63.484375 0)"/>
      <use xlink:href="#DejaVuSans-55" transform="translate(102.6875 0)"/>
      <use xlink:href="#DejaVuSans-52" transform="translate(141.59375 0)"/>
      <use xlink:href="#DejaVuSans-51" transform="translate(202.78125 0)"/>
      <use xlink:href="#DejaVuSans-4a" transform="translate(266.15625 0)"/>
      <use xlink:href="#DejaVuSans-3" transform="translate(329.640625 0)"/>
      <use xlink:href="#DejaVuSans-57" transform="translate(361.421875 0)"/>
      <use xlink:href="#DejaVuSans-4b" transform="translate(400.625 0)"/>
      <use xlink:href="#DejaVuSans-55" transform="translate(464 0)"/>
      <use xlink:href="#DejaVuSans-48" transform="translate(502.90625 0)"/>
      <use xlink:href="#DejaVuSans-56" transform="translate(564.4375 0)"/>
      <use xlink:href="#DejaVuSans-4b" transform="translate(616.53125 0)"/>
      <use xlink:href="#DejaVuSans-52" transform="translate(679.90625 0)"/>
      <use xlink:href="#DejaVuSans-4f" transform="translate(741.09375 0)"/>
      <use xlink:href="#DejaVuSans-47" transform="translate(768.875 0)"/>
      <use xlink:href="#DejaVuSans-3" transform="translate(832.359375 0)"/>
      <use xlink:href="#DejaVuSans-b" transform="translate(864.140625 0)"/>
      <use xlink:href="#DejaVuSans-1a" transform="translate(903.15625 0)"/>
      <use xlink:href="#DejaVuSans-11" transform="translate(966.78125 0)"/>
      <use xlink:href="#DejaVuSans-13" transform="translate(998.5625 0)"/>
      <use xlink:href="#DejaVuSans-c" transform="translate(1062.1875 0)"/>
     </g>
    </g>
   </g>
  </g>
 </g>
 <defs>
  <clipPath id="p510093f595">
   <rect x="37.199688" y="23.837812" width="613.8" height="443.52"/>
  </clipPath>
 </defs>
</svg>
